<svg width="30" height="34" viewBox="0 0 30 34" fill="none" xmlns="http://www.w3.org/2000/svg">
<path d="M21.6667 19.3327C21.6667 21.8493 19.4 23.8993 15.9667 27.016L15 27.8993L14.0333 27.016C10.6 23.8993 8.33333 21.8493 8.33333 19.3327C8.33333 17.2827 9.95 15.666 12 15.666C13.1667 15.666 14.2667 16.1993 15 17.0493C15.7333 16.1993 16.8333 15.666 18 15.666C20.05 15.666 21.6667 17.2827 21.6667 19.3327ZM30 7.33268V30.666C30 32.516 28.5167 33.9993 26.6667 33.9993H3.33333C2.44928 33.9993 1.60143 33.6482 0.97631 33.023C0.351189 32.3979 0 31.5501 0 30.666V7.33268C0 5.49935 1.5 3.99935 3.33333 3.99935H5V0.666016H8.33333V3.99935H21.6667V0.666016H25V3.99935H26.6667C27.5507 3.99935 28.3986 4.35054 29.0237 4.97566C29.6488 5.60078 30 6.44863 30 7.33268ZM3.33333 7.33268V10.666H26.6667V7.33268H3.33333ZM26.6667 30.666V13.9993H3.33333V30.666H26.6667Z" fill="#D7749B"/>
</svg>
