<svg width="1208" height="608" viewBox="0 0 1208 608" fill="none" xmlns="http://www.w3.org/2000/svg">
<g filter="url(#filter0_d_1787_2202)">
<rect x="4" width="1200" height="600" rx="30" fill="#FFFAF8"/>
<rect x="4.5" y="0.5" width="1199" height="599" rx="29.5" stroke="#D7749B"/>
<path d="M988.694 397.592L964.352 373.251H814.333C808.512 373.251 803.531 371.18 799.389 367.038C795.248 362.896 793.174 357.912 793.166 352.084V225.084C793.166 219.263 795.241 214.282 799.389 210.14C803.538 205.999 808.519 203.924 814.333 203.917H825.181V234.08L779.144 188.042L794.225 172.961L1003.77 382.511L988.694 397.592ZM1004.83 353.407L946.36 294.669C947.242 287.261 946.491 280.075 944.106 273.111C941.721 266.147 937.89 260.016 932.612 254.717C927.497 249.602 921.454 245.855 914.483 243.478C907.512 241.1 900.326 240.349 892.925 241.223L851.375 199.948L867.25 182.751H930.75L950.329 203.917H983.666C989.487 203.917 994.472 205.992 998.621 210.14C1002.77 214.289 1004.84 219.27 1004.83 225.084V353.407ZM899 336.209C903.057 336.209 906.983 335.768 910.779 334.886C914.575 334.004 918.233 332.593 921.754 330.653L856.931 265.83C854.991 269.357 853.58 273.019 852.698 276.815C851.816 280.611 851.375 284.534 851.375 288.584C851.375 301.813 856.007 313.06 865.271 322.324C874.535 331.587 885.778 336.216 899 336.209ZM899 315.042C891.591 315.042 885.33 312.485 880.214 307.369C875.099 302.254 872.541 295.992 872.541 288.584C872.541 285.056 873.205 281.662 874.531 278.403C875.858 275.143 877.752 272.275 880.214 269.798L917.785 307.369C915.316 309.839 912.451 311.737 909.192 313.063C905.932 314.39 902.535 315.049 899 315.042Z" fill="#878787"/>
<path d="M735.531 415.594C739.781 415.594 742.844 419.469 742.875 425.562C742.844 431.719 739.781 435.562 735.531 435.562C731.25 435.562 728.156 431.719 728.188 425.562C728.156 419.469 731.25 415.594 735.531 415.594ZM735.531 418.719C733.156 418.719 731.531 421.25 731.531 425.562C731.531 429.906 733.156 432.438 735.531 432.438C737.938 432.438 739.531 429.906 739.531 425.562C739.531 421.25 737.938 418.719 735.531 418.719ZM750.062 413.531V424.375H754.406V427.312H750.062V441.781H746.594V413.531H750.062ZM765.513 418.438C765.513 421.938 767.919 425.406 772.419 426.812L770.638 429.5C767.434 428.484 765.106 426.344 763.825 423.656C762.544 426.578 760.153 428.906 756.794 430.031L755.013 427.344C759.544 425.812 761.981 422.125 762.013 418.438V418.094H755.919V415.312H771.45V418.094H765.513V418.438ZM778.325 413.531V430.562H774.825V413.531H778.325ZM778.325 431.875V441.781H774.825V434.688H759.044V431.875H778.325ZM812.037 413.531V441.781H808.537V413.531H812.037ZM803.6 416.531C803.6 424.938 800.35 432.094 790.444 436.781L788.631 434C796.022 430.484 799.459 425.703 800.069 419.281H790.069V416.531H803.6ZM841.081 428.812V431.625H815.269V428.812H826.456V426.469H818.55V418.969H834.425V416.875H818.456V414.156H837.894V421.5H821.988V423.75H838.456V426.469H829.894V428.812H841.081ZM838.05 433.406V441.594H834.55V436.156H818.144V433.406H838.05ZM858.594 422.406V425.188H853.344V428.375C855.703 428.281 858.047 428.125 860.25 427.906L860.5 430.406C854.5 431.25 848 431.406 842.75 431.406L842.281 428.625C844.609 428.609 847.188 428.594 849.844 428.5V425.188H844.719V415.281H858.375V418.094H848.219V422.406H858.594ZM865.719 413.531V434.75H862.219V413.531H865.719ZM866.531 438.406V441.219H846.781V433.188H850.281V438.406H866.531ZM899.306 413.531V441.812H895.806V413.531H899.306ZM884.087 415.594C888.337 415.594 891.431 419.469 891.462 425.562C891.431 431.719 888.337 435.562 884.087 435.562C879.806 435.562 876.712 431.719 876.712 425.562C876.712 419.469 879.806 415.594 884.087 415.594ZM884.087 418.719C881.681 418.719 880.056 421.25 880.056 425.562C880.056 429.906 881.681 432.438 884.087 432.438C886.462 432.438 888.087 429.906 888.087 425.562C888.087 421.25 886.462 418.719 884.087 418.719ZM917.6 416.188V434.906H904.163V416.188H917.6ZM907.6 418.906V432.125H914.225V418.906H907.6ZM926.163 413.531V441.812H922.663V413.531H926.163ZM940.175 421.562C940.175 426.188 942.894 431.062 947.456 432.969L945.55 435.719C942.206 434.281 939.769 431.312 938.488 427.719C937.175 431.594 934.706 434.844 931.394 436.406L929.394 433.688C933.863 431.625 936.644 426.375 936.644 421.562V419.188H930.425V416.312H946.363V419.188H940.175V421.562ZM953.019 413.531V441.781H949.519V413.531H953.019ZM978.5 413.531V424.562H982.688V427.469H978.5V441.719H975.031V413.531H978.5ZM971.031 416.469C971.031 424.781 967.594 432.062 958.188 436.688L956.219 434C963.094 430.578 966.812 425.766 967.531 419.344H957.75V416.469H971.031ZM996.431 430.062V433.094H1000.15V430.062H1003.37V439.031C1006.68 437.641 1008.21 434.781 1008.21 432.094V429.844H1011.68V432.094C1011.68 435.031 1013.18 437.875 1016.68 439.062L1014.9 441.656C1012.42 440.766 1010.81 439.047 1009.93 436.906C1008.98 438.984 1007.37 440.703 1005.02 441.656L1003.37 439.188V441.438H993.181V430.062H996.431ZM996.431 438.781H1000.15V435.688H996.431V438.781ZM997.869 414.688C1001.51 414.688 1004.38 416.719 1005.12 419.781H1010.21V413.531H1013.68V428.5H1010.21V422.656H1005.12C1004.43 425.797 1001.52 427.875 997.869 427.875C993.525 427.875 990.4 425.156 990.4 421.25C990.4 417.375 993.525 414.688 997.869 414.688ZM997.869 417.562C995.431 417.562 993.712 419 993.712 421.25C993.712 423.531 995.431 425.031 997.869 425.031C1000.24 425.031 1001.93 423.531 1001.96 421.25C1001.93 419 1000.24 417.562 997.869 417.562ZM1024.6 415.594C1028.43 415.594 1031.26 418.781 1031.76 423.938H1037.13V413.531H1040.57V441.812H1037.13V426.75H1031.79C1031.41 432.203 1028.54 435.562 1024.6 435.562C1020.35 435.562 1017.35 431.719 1017.35 425.562C1017.35 419.469 1020.35 415.594 1024.6 415.594ZM1024.6 418.719C1022.26 418.719 1020.66 421.25 1020.69 425.562C1020.66 429.906 1022.26 432.438 1024.6 432.438C1026.94 432.438 1028.51 429.906 1028.54 425.562C1028.51 421.25 1026.94 418.719 1024.6 418.719ZM1069.55 435.5V438.344H1043.74V435.5H1049.71V428.344C1047.46 427.062 1046.1 425.047 1046.11 422.531C1046.08 418.031 1050.52 415.062 1056.58 415.062C1062.67 415.062 1067.11 418.031 1067.11 422.531C1067.11 425 1065.8 426.984 1063.61 428.281V435.5H1069.55ZM1056.58 417.812C1052.36 417.812 1049.49 419.594 1049.52 422.531C1049.49 425.438 1052.36 427.25 1056.58 427.25C1060.8 427.25 1063.71 425.438 1063.71 422.531C1063.71 419.594 1060.8 417.812 1056.58 417.812ZM1053.14 435.5H1060.08V429.594C1059 429.844 1057.83 429.969 1056.58 429.969C1055.36 429.969 1054.21 429.844 1053.14 429.625V435.5Z" fill="#878787"/>
<path d="M84.625 70.5469C90.0547 70.5469 93.9609 75.4688 94 83.2031C93.9609 91.0156 90.0547 95.8984 84.625 95.8984C79.1953 95.8984 75.2109 91.0156 75.25 83.2031C75.2109 75.4688 79.1953 70.5469 84.625 70.5469ZM84.625 75.0391C81.8906 75.0391 80.0547 77.9297 80.0547 83.2031C80.0547 88.5156 81.8906 91.3672 84.625 91.3672C87.3984 91.3672 89.1953 88.5156 89.2344 83.2031C89.1953 77.9297 87.3984 75.0391 84.625 75.0391ZM103.102 68.0469V81.4453H108.336V85.5859H103.102V103.594H98.1016V68.0469H103.102ZM138.391 68.0469V89.4531H133.391V68.0469H138.391ZM138.391 91.0156V103.594H133.391V95H113.938V91.0156H138.391ZM129.641 70.1172V74.1016H122.492C122.531 78.2617 125.148 82.6367 130.969 84.375L128.43 88.2422C124.445 87.0117 121.633 84.4531 120.031 81.2109C118.41 84.7266 115.52 87.5195 111.359 88.9062L108.781 85.0391C114.641 83.1445 117.375 78.5352 117.414 74.1016H110.109V70.1172H129.641ZM180.297 68.0469V103.594H175.258V68.0469H180.297ZM169.633 71.7578C169.633 82.5391 165.844 91.4844 153.148 97.5L150.531 93.5156C159.711 89.1797 163.754 83.5547 164.555 75.6641H152.445V71.7578H169.633ZM216.484 87.1094V91.0938H183.945V87.1094H197.734V84.5312H188.008V74.7656H207.539V72.5781H187.93V68.7109H212.539V78.3594H192.969V80.7031H213.203V84.5312H202.695V87.1094H216.484ZM212.734 93.125V103.438H207.695V97.0312H187.578V93.125H212.734ZM238.297 78.9453V82.9297H231.93V86.5234C234.742 86.3867 237.535 86.2109 240.172 85.9375L240.523 89.4922C232.984 90.5469 224.938 90.7422 218.375 90.7422L217.711 86.7969C220.562 86.7773 223.707 86.7578 226.93 86.6797V82.9297H220.719V70.1953H237.984V74.1797H225.719V78.9453H238.297ZM247.438 68.0078V94.8047H242.359V68.0078H247.438ZM248.375 98.9844V102.969H223.219V92.7734H228.258V98.9844H248.375ZM289.305 68.0469V89.1406H284.344V80.7422H278.797V76.7188H284.344V68.0469H289.305ZM277.156 89.9219C284.734 89.9609 289.383 92.4609 289.422 96.7969C289.383 101.094 284.734 103.633 277.156 103.633C269.578 103.633 264.93 101.094 264.93 96.7969C264.93 92.4609 269.578 89.9609 277.156 89.9219ZM277.156 93.75C272.43 93.75 269.891 94.7266 269.891 96.7969C269.891 98.8281 272.43 99.8438 277.156 99.8438C281.883 99.8438 284.461 98.8281 284.461 96.7969C284.461 94.7266 281.883 93.75 277.156 93.75ZM279.852 70.1953V74.1797H272.781C272.898 78.3203 275.398 82.5 280.945 84.3359L278.484 88.2422C274.559 86.9727 271.863 84.3945 270.32 81.1719C268.738 84.8047 265.906 87.7344 261.688 89.1797L259.109 85.2344C264.949 83.2812 267.566 78.6328 267.703 74.1797H260.555V70.1953H279.852ZM325.453 95.3906V99.4531H292.914V95.3906H306.625V88.8281H296.352V70.3125H301.352V75.8203H316.859V70.3125H321.82V88.8281H311.586V95.3906H325.453ZM301.352 84.8438H316.859V79.8047H301.352V84.8438ZM354.531 68.0469V81.6797H359.57V85.7812H354.531V103.516H349.531V68.0469H354.531ZM345.039 71.6797C345 82.3047 340.859 91.5234 328.906 97.3828L326.094 93.5547C334.512 89.3359 339.023 83.6719 339.961 75.7422H328.125V71.6797H345.039ZM376.828 88.8281V92.3828H380.656V88.8281H385.266V99.6094C389.211 97.8516 390.891 94.5312 390.891 91.2891V88.5547H395.891V91.2891C395.852 94.9219 397.609 98.3594 402.062 99.8047L399.484 103.516C396.418 102.461 394.445 100.43 393.312 97.8906C392.121 100.352 390.168 102.402 387.297 103.516L385.266 100.43V103.203H372.219V88.8281H376.828ZM376.828 99.4141H380.656V96.0547H376.828V99.4141ZM378.195 69.375C382.727 69.375 386.34 71.8945 387.336 75.6641H393.273V68.0469H398.234V86.875H393.273V79.7656H387.336C386.379 83.6133 382.746 86.1719 378.195 86.1719C372.727 86.1719 368.703 82.6953 368.742 77.7344C368.703 72.8516 372.727 69.375 378.195 69.375ZM378.195 73.4766C375.422 73.4766 373.43 75.1172 373.469 77.7344C373.43 80.4297 375.422 82.0703 378.195 82.1094C380.891 82.0703 382.844 80.4297 382.844 77.7344C382.844 75.1172 380.891 73.4766 378.195 73.4766ZM411.648 70.5469C416.453 70.5469 420.027 74.5117 420.75 80.8984H426.922V68.0469H431.844V103.672H426.922V84.8828H420.789C420.262 91.7188 416.609 95.8984 411.648 95.8984C406.258 95.8984 402.391 91.0156 402.43 83.2031C402.391 75.4688 406.258 70.5469 411.648 70.5469ZM411.648 75.0391C408.992 75.0391 407.156 77.9297 407.195 83.2031C407.156 88.5156 408.992 91.3672 411.648 91.3672C414.344 91.3672 416.102 88.5156 416.102 83.2031C416.102 77.9297 414.344 75.0391 411.648 75.0391ZM467.953 95.3516V99.4531H435.414V95.3516H442.68V86.6406C439.926 85 438.266 82.4805 438.266 79.3359C438.266 73.5938 443.891 69.7656 451.625 69.7656C459.32 69.7656 464.984 73.5938 465.023 79.3359C465.004 82.4023 463.383 84.9023 460.727 86.5625V95.3516H467.953ZM451.625 73.7109C446.547 73.7109 443.188 75.7422 443.188 79.3359C443.188 82.8125 446.547 84.9609 451.625 84.9609C456.664 84.9609 460.062 82.8125 460.102 79.3359C460.062 75.7422 456.664 73.7109 451.625 73.7109ZM447.602 95.3516H455.688V88.4375C454.418 88.6914 453.051 88.8281 451.625 88.8281C450.199 88.8281 448.852 88.7109 447.602 88.4375V95.3516Z" fill="#878787"/>
<path fill-rule="evenodd" clip-rule="evenodd" d="M93 155C98.3043 155 103.391 156.881 107.142 160.228C110.893 163.576 113 168.117 113 172.851C113 178.948 109.276 183.938 105.351 187.519C103.39 189.288 101.251 190.892 98.96 192.311L98.0133 192.886L97.5689 193.15L96.7311 193.626L95.9844 194.032L95.06 194.512C94.4325 194.832 93.7225 195 93 195C92.2775 195 91.5675 194.832 90.94 194.512L90.0156 194.032L88.86 193.397L88.4333 193.15L87.5222 192.608C85.0507 191.116 82.7487 189.411 80.6489 187.519C76.7244 183.936 73 178.948 73 172.851C73 168.117 75.1071 163.576 78.8579 160.228C82.6086 156.881 87.6957 155 93 155ZM93 158.967C88.8744 158.967 84.9178 160.43 82.0006 163.033C79.0833 165.637 77.4444 169.169 77.4444 172.851C77.4444 177.457 80.2711 181.499 83.8244 184.744C85.3523 186.124 87.0037 187.391 88.7622 188.532L89.78 189.179C90.1089 189.384 90.4252 189.574 90.7289 189.75L91.5956 190.246L92.3578 190.66L93 190.996L94.0111 190.462L94.8267 190.006C95.2607 189.76 95.7252 189.484 96.22 189.179L97.2378 188.532C98.9963 187.391 100.648 186.124 102.176 184.744C105.729 181.501 108.556 177.457 108.556 172.851C108.556 169.169 106.917 165.637 103.999 163.033C101.082 160.43 97.1256 158.967 93 158.967Z" fill="#878787"/>
<path d="M93.0287 175.216L91.9841 174.369C88.2739 171.371 85.8245 169.387 85.8245 166.967C85.8245 164.983 87.5679 163.436 89.7868 163.436C91.0403 163.436 92.2434 163.956 93.0287 164.771C93.8139 163.956 95.017 163.436 96.2706 163.436C98.4894 163.436 100.233 164.983 100.233 166.967C100.233 169.387 97.7834 171.371 94.0733 174.369L93.0287 175.216Z" fill="#878787"/>
<path d="M141.027 163.35C144.865 163.379 147.59 166.895 147.619 172.432C147.59 177.969 144.865 181.484 141.027 181.484C137.16 181.484 134.465 177.969 134.465 172.432C134.465 166.895 137.16 163.379 141.027 163.35ZM141.027 165.4C138.449 165.43 136.633 168.184 136.633 172.432C136.633 176.68 138.449 179.434 141.027 179.434C143.635 179.434 145.393 176.68 145.393 172.432C145.393 168.184 143.635 165.43 141.027 165.4ZM154.211 161.328V171.729H158.576V173.721H154.211V187.373H151.926V161.328H154.211ZM168.607 166.162C168.607 169.678 171.391 172.871 175.287 174.131L174.115 175.918C171.083 174.893 168.666 172.739 167.494 169.971C166.352 172.944 163.905 175.288 160.814 176.416L159.613 174.629C163.51 173.252 166.293 169.854 166.293 166.162V165.049H160.199V163.174H174.613V165.049H168.607V166.162ZM180.736 161.328V177.09H178.451V161.328H180.736ZM180.736 178.467V187.373H178.451V180.371H163.217V178.467H180.736ZM212.723 161.328V187.373H210.408V161.328H212.723ZM205.018 164.17C204.988 171.67 201.502 178.291 192.771 182.48L191.512 180.605C198.558 177.266 202.146 172.271 202.674 166.045H192.713V164.17H205.018ZM240.186 175.684V177.588H216.338V175.684H227.119V172.93H219.443V166.572H234.795V163.877H219.355V162.002H237.109V168.301H221.729V171.084H237.666V172.93H229.375V175.684H240.186ZM237.256 179.58V187.139H234.941V181.455H219.004V179.58H237.256ZM256.691 169.883V171.758H251.418V175.391C253.85 175.288 256.281 175.112 258.537 174.863L258.713 176.562C253.117 177.324 246.906 177.5 242.014 177.5L241.662 175.625C243.947 175.61 246.511 175.581 249.133 175.479V171.758H244.035V163.027H256.486V164.932H246.35V169.883H256.691ZM263.02 161.357V180.84H260.705V161.357H263.02ZM263.869 184.883V186.816H246.115V179.492H248.4V184.883H263.869ZM282.32 166.279C282.32 169.678 284.869 172.725 288.707 173.984L287.623 175.801C284.62 174.819 282.35 172.739 281.236 170.117C280.108 173.105 277.706 175.435 274.586 176.562L273.414 174.717C277.311 173.398 280.035 170.029 280.064 166.279V165.166H274.117V163.262H288.18V165.166H282.32V166.279ZM293.863 161.328V167.979H297.789V169.912H293.863V177.061H291.578V161.328H293.863ZM285.514 177.764C290.875 177.764 294.098 179.521 294.098 182.51C294.098 185.557 290.875 187.314 285.514 187.314C280.152 187.314 276.871 185.557 276.871 182.51C276.871 179.521 280.152 177.764 285.514 177.764ZM285.514 179.609C281.588 179.609 279.156 180.693 279.186 182.51C279.156 184.385 281.588 185.469 285.514 185.469C289.469 185.469 291.871 184.385 291.871 182.51C291.871 180.693 289.469 179.609 285.514 179.609ZM322.527 182.07V183.975H298.68V182.07H309.344V175.684H311.6V182.07H322.527ZM311.658 165.107C311.658 169.473 316.814 173.281 321.355 174.072L320.33 175.977C316.36 175.171 312.171 172.476 310.486 168.711C308.772 172.461 304.612 175.171 300.643 175.977L299.617 174.072C304.158 173.281 309.256 169.473 309.256 165.107V163.115H311.658V165.107ZM344.014 161.328V171.934H348.232V173.867H344.014V187.373H341.729V161.328H344.014ZM337.275 164.141C337.275 171.523 333.818 178.232 325.322 182.422L324.033 180.605C330.771 177.251 334.434 172.241 334.961 166.074H325.234V164.141H337.275ZM361 176.621V179.873H365.746V176.621H367.885V187.021H358.832V176.621H361ZM361 185.205H365.746V181.631H361V185.205ZM375.326 178.672C375.297 181.426 376.938 184.297 380.131 185.469L378.93 187.227C376.527 186.26 374.945 184.429 374.154 182.246C373.319 184.385 371.737 186.23 369.438 187.227L368.236 185.469C371.371 184.18 373.041 181.309 373.041 178.672V176.445H375.326V178.672ZM362.992 162.5C366.479 162.5 369.145 164.478 369.643 167.48H375.092V161.328H377.406V175.127H375.092V169.385H369.672C369.203 172.461 366.522 174.482 362.992 174.482C359.037 174.482 356.225 172.051 356.225 168.477C356.225 164.932 359.037 162.5 362.992 162.5ZM362.992 164.434C360.326 164.434 358.422 166.104 358.422 168.477C358.422 170.879 360.326 172.578 362.992 172.578C365.629 172.578 367.504 170.879 367.504 168.477C367.504 166.104 365.629 164.434 362.992 164.434ZM387.994 163.35C391.539 163.379 394.088 166.411 394.469 171.289H400.299V161.328H402.584V187.432H400.299V173.193H394.498C394.22 178.291 391.627 181.484 387.994 181.484C384.156 181.484 381.461 177.969 381.461 172.432C381.461 166.895 384.156 163.379 387.994 163.35ZM387.994 165.4C385.416 165.43 383.658 168.184 383.658 172.432C383.658 176.68 385.416 179.434 387.994 179.434C390.543 179.434 392.33 176.68 392.33 172.432C392.33 168.184 390.543 165.43 387.994 165.4ZM430.018 182.1V184.033H406.17V182.1H412.088V175.068C409.861 173.911 408.514 172.036 408.514 169.678C408.514 165.635 412.469 162.998 418.035 162.969C423.602 162.998 427.557 165.635 427.557 169.678C427.557 171.992 426.253 173.853 424.1 175.01V182.1H430.018ZM418.035 164.873C413.758 164.844 410.74 166.777 410.74 169.678C410.74 172.578 413.758 174.541 418.035 174.541C422.283 174.541 425.33 172.578 425.33 169.678C425.33 166.777 422.283 164.844 418.035 164.873ZM414.344 182.1H421.785V175.889C420.657 176.196 419.397 176.357 418.035 176.357C416.702 176.357 415.457 176.211 414.344 175.918V182.1Z" fill="#878787"/>
<path d="M100.667 254.333C100.667 256.849 98.4 258.899 94.9667 262.016L94 262.899L93.0333 262.016C89.6 258.899 87.3333 256.849 87.3333 254.333C87.3333 252.283 88.95 250.666 91 250.666C92.1667 250.666 93.2667 251.199 94 252.049C94.7333 251.199 95.8333 250.666 97 250.666C99.05 250.666 100.667 252.283 100.667 254.333ZM109 242.333V265.666C109 267.516 107.517 268.999 105.667 268.999H82.3333C81.4493 268.999 80.6014 268.648 79.9763 268.023C79.3512 267.398 79 266.55 79 265.666V242.333C79 240.499 80.5 238.999 82.3333 238.999H84V235.666H87.3333V238.999H100.667V235.666H104V238.999H105.667C106.551 238.999 107.399 239.351 108.024 239.976C108.649 240.601 109 241.449 109 242.333ZM82.3333 242.333V245.666H105.667V242.333H82.3333ZM105.667 265.666V248.999H82.3333V265.666H105.667Z" fill="#878787"/>
<path d="M142.438 243.295C146.334 243.324 149.176 245.668 149.176 249.066C149.176 252.465 146.334 254.809 142.438 254.809C138.482 254.809 135.67 252.465 135.67 249.066C135.67 245.668 138.482 243.324 142.438 243.295ZM142.438 245.229C139.83 245.229 137.896 246.811 137.926 249.066C137.896 251.352 139.83 252.934 142.438 252.934C145.016 252.934 146.949 251.352 146.949 249.066C146.949 246.811 145.016 245.229 142.438 245.229ZM156.559 242.328V255.717H154.273V242.328H156.559ZM156.559 256.977V263.246H141.939V266.176H157.496V268.021H139.684V261.518H154.273V258.822H139.625V256.977H156.559ZM181.824 242.328V257.855H179.51V251.029H174.266V249.125H179.51V242.328H181.824ZM173.182 258.676C178.602 258.676 181.912 260.434 181.912 263.51C181.912 266.586 178.602 268.344 173.182 268.373C167.762 268.344 164.451 266.586 164.451 263.51C164.451 260.434 167.762 258.676 173.182 258.676ZM173.182 260.463C169.197 260.463 166.707 261.605 166.736 263.51C166.707 265.385 169.197 266.527 173.182 266.527C177.166 266.527 179.627 265.385 179.627 263.51C179.627 261.605 177.166 260.463 173.182 260.463ZM169.285 247.104C169.285 250.502 171.893 253.725 175.701 255.043L174.5 256.889C171.57 255.834 169.3 253.651 168.201 250.941C167.059 254.003 164.642 256.449 161.551 257.621L160.35 255.775C164.217 254.369 166.971 250.854 166.971 247.133V246.166H161.082V244.232H175.115V246.166H169.285V247.104ZM212.346 242.328V252.582H216.711V254.574H212.346V268.373H210.061V242.328H212.346ZM195.559 244.555V251.439H203.176V244.555H205.461V262.133H193.273V244.555H195.559ZM195.559 260.199H203.176V253.285H195.559V260.199ZM241.215 263.217V265.15H217.367V263.217H228.09V258.295H220.355V250.268H235.941V246.166H220.297V244.262H238.197V252.143H222.641V256.391H238.812V258.295H230.346V263.217H241.215ZM269.48 242.328V252.934H273.699V254.867H269.48V268.373H267.195V242.328H269.48ZM262.742 245.141C262.742 252.523 259.285 259.232 250.789 263.422L249.5 261.605C256.238 258.251 259.9 253.241 260.428 247.074H250.701V245.141H262.742ZM296.035 242.328V268.373H293.721V242.328H296.035ZM288.33 245.17C288.301 252.67 284.814 259.291 276.084 263.48L274.824 261.605C281.87 258.266 285.459 253.271 285.986 247.045H276.025V245.17H288.33ZM323.498 254.428V256.244H299.65V254.428H323.498ZM320.51 258.324V263.861H304.865V266.352H321.359V268.021H302.551V262.279H318.225V260.053H302.521V258.324H320.51ZM320.422 243.119V248.51H305.041V250.795H320.891V252.465H302.756V246.928H318.107V244.789H302.668V243.119H320.422ZM355.367 256.156V258.031H331.607V256.156H342.33V253.578H334.771V243.09H352.408V244.965H337.086V247.396H351.705V249.154H337.086V251.732H352.555V253.578H344.615V256.156H355.367ZM343.502 259.994C349.215 259.965 352.438 261.43 352.467 264.154C352.438 266.879 349.215 268.314 343.502 268.314C337.73 268.314 334.508 266.879 334.508 264.154C334.508 261.43 337.73 259.965 343.502 259.994ZM343.502 261.723C339.195 261.723 336.793 262.602 336.822 264.154C336.793 265.736 339.195 266.557 343.502 266.527C347.75 266.557 350.152 265.736 350.152 264.154C350.152 262.602 347.75 261.723 343.502 261.723ZM369.822 246.84V248.715H356.756V246.84H362.176V243.119H364.461V246.84H369.822ZM363.289 250.473C366.57 250.473 368.914 252.934 368.943 256.391C368.914 259.877 366.57 262.367 363.289 262.367C360.037 262.367 357.693 259.877 357.693 256.391C357.693 252.934 360.037 250.473 363.289 250.473ZM363.289 252.406C361.238 252.436 359.744 254.105 359.744 256.391C359.744 258.705 361.238 260.375 363.289 260.346C365.369 260.375 366.893 258.705 366.893 256.391C366.893 254.105 365.369 252.436 363.289 252.406ZM378.992 242.328V268.373H376.795V255.219H373.338V267.084H371.17V242.973H373.338V253.314H376.795V242.328H378.992ZM410.305 242.328V268.373H407.99V242.328H410.305ZM402.6 245.17C402.57 252.67 399.084 259.291 390.354 263.48L389.094 261.605C396.14 258.266 399.729 253.271 400.256 247.045H390.295V245.17H402.6ZM437.768 256.684V258.588H413.92V256.684H424.701V253.93H417.025V247.572H432.377V244.877H416.938V243.002H434.691V249.301H419.311V252.084H435.248V253.93H426.957V256.684H437.768ZM434.838 260.58V268.139H432.523V262.455H416.586V260.58H434.838ZM450.992 242.797C456.793 242.797 460.191 244.379 460.191 247.279C460.191 250.238 456.793 251.82 450.992 251.85C445.191 251.82 441.764 250.238 441.764 247.279C441.764 244.379 445.191 242.797 450.992 242.797ZM450.992 244.525C446.656 244.525 444.137 245.58 444.166 247.279C444.137 249.096 446.656 250.092 450.992 250.092C455.299 250.092 457.848 249.096 457.848 247.279C457.848 245.58 455.299 244.525 450.992 244.525ZM462.857 253.607V255.482H439.127V253.607H462.857ZM459.811 257.738V263.568H444.342V266.264H460.602V268.08H442.057V261.869H457.555V259.496H441.998V257.738H459.811ZM494.814 258.09V260.023H484.062V268.432H481.807V260.023H471.084V258.09H494.814ZM484.092 247.484C484.092 250.736 488.633 253.578 493.291 254.223L492.441 256.068C488.413 255.453 484.619 253.432 482.979 250.59C481.309 253.461 477.456 255.453 473.428 256.068L472.578 254.223C477.207 253.578 481.807 250.766 481.807 247.484V247.455H473.398V245.58H481.807V242.328H484.062V245.58H492.529V247.455H484.092V247.484ZM516.418 242.328V252.934H520.637V254.867H516.418V268.373H514.133V242.328H516.418ZM509.68 245.141C509.68 252.523 506.223 259.232 497.727 263.422L496.438 261.605C503.176 258.251 506.838 253.241 507.365 247.074H497.639V245.141H509.68ZM548.58 242.24V248.568H552.535V250.473H548.58V256.654H546.295V242.24H548.58ZM548.58 258.002V263.773H534.283V266.322H549.547V268.08H532.027V262.074H546.295V259.73H531.969V258.002H548.58ZM543.805 244.701V246.547H528.277V244.701H534.898V242.064H537.184V244.701H543.805ZM536.041 247.719C539.82 247.719 542.281 249.359 542.311 251.996C542.281 254.633 539.82 256.273 536.041 256.273C532.232 256.273 529.742 254.633 529.771 251.996C529.742 249.359 532.232 247.719 536.041 247.719ZM536.041 249.418C533.58 249.418 531.939 250.443 531.969 251.996C531.939 253.578 533.58 254.545 536.041 254.545C538.502 254.545 540.113 253.578 540.143 251.996C540.113 250.443 538.502 249.418 536.041 249.418ZM573.242 244.76C573.242 248.422 578.047 251.615 582.734 252.26L581.797 254.135C577.754 253.461 573.755 251.22 572.07 248.012C570.4 251.234 566.387 253.461 562.344 254.135L561.406 252.26C566.094 251.615 570.869 248.48 570.869 244.76V243.266H573.242V244.76ZM583.906 257.006V258.939H573.125V268.373H570.869V258.939H560.176V257.006H583.906ZM600.951 259.818C600.951 262.118 602.182 264.564 604.672 265.971C607.133 264.433 608.451 261.84 608.451 259.818V258.383H610.707V259.818C610.707 262.484 612.67 265.18 616.01 266.322L614.867 268.021C612.26 267.099 610.429 265.282 609.535 263.1C608.729 265.209 607.133 267.201 604.73 268.227C602.196 267.26 600.585 265.341 599.809 263.158C598.886 265.268 597.084 267.084 594.594 268.021L593.422 266.322C596.703 265.092 598.695 262.309 598.725 259.818V258.383H600.951V259.818ZM613.637 242.357V257.24H611.352V242.357H613.637ZM599.574 243.881C603.529 243.881 606.4 246.342 606.4 249.975C606.4 253.549 603.529 256.01 599.574 256.01C595.619 256.01 592.748 253.549 592.748 249.975C592.748 246.342 595.619 243.881 599.574 243.881ZM599.574 245.844C596.908 245.814 594.975 247.543 595.004 249.975C594.975 252.377 596.908 254.076 599.574 254.105C602.211 254.076 604.145 252.377 604.145 249.975C604.145 247.543 602.211 245.814 599.574 245.844ZM624.312 244.35C627.857 244.379 630.406 247.411 630.787 252.289H636.617V242.328H638.902V268.432H636.617V254.193H630.816C630.538 259.291 627.945 262.484 624.312 262.484C620.475 262.484 617.779 258.969 617.779 253.432C617.779 247.895 620.475 244.379 624.312 244.35ZM624.312 246.4C621.734 246.43 619.977 249.184 619.977 253.432C619.977 257.68 621.734 260.434 624.312 260.434C626.861 260.434 628.648 257.68 628.648 253.432C628.648 249.184 626.861 246.43 624.312 246.4ZM666.336 263.1V265.033H642.488V263.1H648.406V256.068C646.18 254.911 644.832 253.036 644.832 250.678C644.832 246.635 648.787 243.998 654.354 243.969C659.92 243.998 663.875 246.635 663.875 250.678C663.875 252.992 662.571 254.853 660.418 256.01V263.1H666.336ZM654.354 245.873C650.076 245.844 647.059 247.777 647.059 250.678C647.059 253.578 650.076 255.541 654.354 255.541C658.602 255.541 661.648 253.578 661.648 250.678C661.648 247.777 658.602 245.844 654.354 245.873ZM650.662 263.1H658.104V256.889C656.976 257.196 655.716 257.357 654.354 257.357C653.021 257.357 651.775 257.211 650.662 256.918V263.1Z" fill="#878787"/>
<g filter="url(#filter1_d_1787_2202)">
<circle cx="98" cy="347" r="25" fill="#FFFAF8"/>
<circle cx="98" cy="347" r="24.5" stroke="#878787"/>
</g>
<path d="M150.492 336.43C154.02 336.43 156.508 339.684 156.508 344.77C156.508 349.855 154.02 353.109 150.492 353.109C146.965 353.109 144.504 349.855 144.531 344.77C144.504 339.684 146.965 336.43 150.492 336.43ZM150.492 337.961C147.949 337.961 146.145 340.75 146.145 344.77C146.145 348.816 147.949 351.578 150.492 351.578C153.09 351.578 154.84 348.816 154.867 344.77C154.84 340.75 153.09 337.961 150.492 337.961ZM162.633 334.516V344.332H166.789V345.809H162.633V358.633H160.91V334.516H162.633ZM176.015 339.109C176.015 342.473 178.859 345.426 182.359 346.574L181.456 347.941C178.64 346.971 176.247 344.893 175.195 342.199C174.169 345.098 171.777 347.354 168.905 348.434L167.976 347.066C171.476 345.809 174.265 342.664 174.292 339.109V337.742H168.441V336.293H181.812V337.742H176.015V339.109ZM187.39 334.516V349.117H185.667V334.516H187.39ZM187.39 350.457V358.633H185.667V351.906H171.284V350.457H187.39ZM216.943 334.516V358.633H215.248V334.516H216.943ZM209.834 337.168C209.806 343.977 206.388 350.129 198.459 353.957L197.502 352.535C204.119 349.404 207.66 344.469 208.111 338.59H198.568V337.168H209.834ZM242.657 347.887V349.363H220.591V347.887H230.762V345.07H223.489V339.438H238.063V336.594H223.407V335.172H239.786V340.777H225.184V343.648H240.305V345.07H232.458V347.887H242.657ZM239.923 351.359V358.359H238.173V352.809H223.052V351.359H239.923ZM258.117 342.582V344.004H253.086V347.668C255.451 347.559 257.816 347.395 260.004 347.148L260.113 348.461C254.918 349.172 249.066 349.336 244.5 349.336L244.227 347.887C246.4 347.873 248.848 347.832 251.363 347.75V344.004H246.469V336.129H257.926V337.578H248.219V342.582H258.117ZM263.887 334.543V352.535H262.164V334.543H263.887ZM264.734 356.609V358.059H248.465V351.332H250.16V356.609H264.734ZM293.549 334.516V348.898H291.827V342.391H286.604V340.941H291.827V334.516H293.549ZM285.62 349.719C290.596 349.719 293.631 351.332 293.631 354.148C293.631 356.965 290.596 358.578 285.62 358.605C280.643 358.578 277.608 356.965 277.635 354.148C277.608 351.332 280.643 349.719 285.62 349.719ZM285.62 351.086C281.764 351.086 279.303 352.262 279.33 354.148C279.303 356.035 281.764 357.184 285.62 357.184C289.475 357.184 291.936 356.035 291.936 354.148C291.936 352.262 289.475 351.086 285.62 351.086ZM281.819 339.055C281.819 342.309 284.471 345.316 287.889 346.492L286.987 347.887C284.266 346.875 282.038 344.783 281.026 342.199C279.987 345.139 277.608 347.477 274.737 348.598L273.834 347.203C277.307 345.918 280.096 342.664 280.096 339.082V337.824H274.436V336.375H287.397V337.824H281.819V339.055ZM319.263 353.984V355.461H297.17V353.984H307.287V348.543H299.849V336.266H301.599V340.805H314.779V336.266H316.474V348.543H309.009V353.984H319.263ZM301.599 347.094H314.779V342.254H301.599V347.094ZM339.235 334.516V344.496H343.309V345.973H339.235V358.633H337.512V334.516H339.235ZM333.055 337.141C333.028 343.84 329.692 350.047 321.899 353.902L320.942 352.535C327.368 349.363 330.868 344.414 331.305 338.59H322.009V337.141H333.055ZM354.679 348.652V351.879H359.683V348.652H361.269V358.277H353.038V348.652H354.679ZM354.679 356.883H359.683V353.246H354.679V356.883ZM368.05 350.648C368.05 353.219 369.691 355.98 372.644 357.129L371.714 358.469C369.431 357.512 367.927 355.68 367.202 353.574C366.464 355.666 364.933 357.498 362.718 358.469L361.816 357.129C364.714 355.926 366.355 353.164 366.382 350.648V348.516H368.05V350.648ZM356.839 335.637C360.12 335.637 362.554 337.496 362.964 340.34H368.378V334.516H370.101V347.285H368.378V341.816H362.991C362.622 344.715 360.161 346.629 356.839 346.629C353.175 346.629 350.605 344.414 350.632 341.133C350.605 337.852 353.175 335.637 356.839 335.637ZM356.839 337.086C354.159 337.086 352.273 338.809 352.273 341.133C352.273 343.457 354.159 345.18 356.839 345.207C359.464 345.18 361.351 343.457 361.351 341.133C361.351 338.809 359.464 337.086 356.839 337.086ZM380.147 336.43C383.442 336.43 385.793 339.314 386.08 343.895H391.905V334.516H393.6V358.66H391.905V345.316H386.108C385.903 350.088 383.524 353.109 380.147 353.109C376.62 353.109 374.159 349.855 374.186 344.77C374.159 339.684 376.62 336.43 380.147 336.43ZM380.147 337.961C377.577 337.961 375.827 340.75 375.827 344.77C375.827 348.816 377.577 351.578 380.147 351.578C382.69 351.578 384.467 348.816 384.467 344.77C384.467 340.75 382.69 337.961 380.147 337.961ZM419.314 353.957V355.434H397.22V353.957H402.853V347.258C400.734 346.191 399.462 344.455 399.462 342.281C399.462 338.562 403.072 336.156 408.185 336.129C413.326 336.156 416.935 338.562 416.935 342.281C416.935 344.428 415.691 346.15 413.627 347.203V353.957H419.314ZM408.185 337.578C404.084 337.551 401.103 339.465 401.103 342.281C401.103 345.043 404.084 346.984 408.185 346.957C412.287 346.984 415.295 345.043 415.295 342.281C415.295 339.465 412.287 337.551 408.185 337.578ZM404.548 353.957H411.904V347.859C410.796 348.188 409.539 348.352 408.185 348.352C406.859 348.352 405.629 348.188 404.548 347.887V353.957Z" fill="#878787"/>
<g filter="url(#filter2_d_1787_2202)">
<circle cx="98" cy="432" r="25" fill="#FFFAF8"/>
<circle cx="98" cy="432" r="24.5" stroke="#878787"/>
</g>
<path d="M150.492 421.43C154.02 421.43 156.508 424.684 156.508 429.77C156.508 434.855 154.02 438.109 150.492 438.109C146.965 438.109 144.504 434.855 144.531 429.77C144.504 424.684 146.965 421.43 150.492 421.43ZM150.492 422.961C147.949 422.961 146.145 425.75 146.145 429.77C146.145 433.816 147.949 436.578 150.492 436.578C153.09 436.578 154.84 433.816 154.867 429.77C154.84 425.75 153.09 422.961 150.492 422.961ZM162.633 419.516V429.332H166.789V430.809H162.633V443.633H160.91V419.516H162.633ZM176.015 424.109C176.015 427.473 178.859 430.426 182.359 431.574L181.456 432.941C178.64 431.971 176.247 429.893 175.195 427.199C174.169 430.098 171.777 432.354 168.905 433.434L167.976 432.066C171.476 430.809 174.265 427.664 174.292 424.109V422.742H168.441V421.293H181.812V422.742H176.015V424.109ZM187.39 419.516V434.117H185.667V419.516H187.39ZM187.39 435.457V443.633H185.667V436.906H171.284V435.457H187.39ZM216.943 419.516V443.633H215.248V419.516H216.943ZM209.834 422.168C209.806 428.977 206.388 435.129 198.459 438.957L197.502 437.535C204.119 434.404 207.66 429.469 208.111 423.59H198.568V422.168H209.834ZM242.657 432.887V434.363H220.591V432.887H230.762V430.07H223.489V424.438H238.063V421.594H223.407V420.172H239.786V425.777H225.184V428.648H240.305V430.07H232.458V432.887H242.657ZM239.923 436.359V443.359H238.173V437.809H223.052V436.359H239.923ZM258.117 427.582V429.004H253.086V432.668C255.451 432.559 257.816 432.395 260.004 432.148L260.113 433.461C254.918 434.172 249.066 434.336 244.5 434.336L244.227 432.887C246.4 432.873 248.848 432.832 251.363 432.75V429.004H246.469V421.129H257.926V422.578H248.219V427.582H258.117ZM263.887 419.543V437.535H262.164V419.543H263.887ZM264.734 441.609V443.059H248.465V436.332H250.16V441.609H264.734ZM293.549 419.516V433.898H291.827V427.391H286.604V425.941H291.827V419.516H293.549ZM285.62 434.719C290.596 434.719 293.631 436.332 293.631 439.148C293.631 441.965 290.596 443.578 285.62 443.605C280.643 443.578 277.608 441.965 277.635 439.148C277.608 436.332 280.643 434.719 285.62 434.719ZM285.62 436.086C281.764 436.086 279.303 437.262 279.33 439.148C279.303 441.035 281.764 442.184 285.62 442.184C289.475 442.184 291.936 441.035 291.936 439.148C291.936 437.262 289.475 436.086 285.62 436.086ZM281.819 424.055C281.819 427.309 284.471 430.316 287.889 431.492L286.987 432.887C284.266 431.875 282.038 429.783 281.026 427.199C279.987 430.139 277.608 432.477 274.737 433.598L273.834 432.203C277.307 430.918 280.096 427.664 280.096 424.082V422.824H274.436V421.375H287.397V422.824H281.819V424.055ZM319.263 438.984V440.461H297.17V438.984H307.287V433.543H299.849V421.266H301.599V425.805H314.779V421.266H316.474V433.543H309.009V438.984H319.263ZM301.599 432.094H314.779V427.254H301.599V432.094ZM339.235 419.516V429.496H343.309V430.973H339.235V443.633H337.512V419.516H339.235ZM333.055 422.141C333.028 428.84 329.692 435.047 321.899 438.902L320.942 437.535C327.368 434.363 330.868 429.414 331.305 423.59H322.009V422.141H333.055ZM354.679 433.652V436.879H359.683V433.652H361.269V443.277H353.038V433.652H354.679ZM354.679 441.883H359.683V438.246H354.679V441.883ZM368.05 435.648C368.05 438.219 369.691 440.98 372.644 442.129L371.714 443.469C369.431 442.512 367.927 440.68 367.202 438.574C366.464 440.666 364.933 442.498 362.718 443.469L361.816 442.129C364.714 440.926 366.355 438.164 366.382 435.648V433.516H368.05V435.648ZM356.839 420.637C360.12 420.637 362.554 422.496 362.964 425.34H368.378V419.516H370.101V432.285H368.378V426.816H362.991C362.622 429.715 360.161 431.629 356.839 431.629C353.175 431.629 350.605 429.414 350.632 426.133C350.605 422.852 353.175 420.637 356.839 420.637ZM356.839 422.086C354.159 422.086 352.273 423.809 352.273 426.133C352.273 428.457 354.159 430.18 356.839 430.207C359.464 430.18 361.351 428.457 361.351 426.133C361.351 423.809 359.464 422.086 356.839 422.086ZM380.147 421.43C383.442 421.43 385.793 424.314 386.08 428.895H391.905V419.516H393.6V443.66H391.905V430.316H386.108C385.903 435.088 383.524 438.109 380.147 438.109C376.62 438.109 374.159 434.855 374.186 429.77C374.159 424.684 376.62 421.43 380.147 421.43ZM380.147 422.961C377.577 422.961 375.827 425.75 375.827 429.77C375.827 433.816 377.577 436.578 380.147 436.578C382.69 436.578 384.467 433.816 384.467 429.77C384.467 425.75 382.69 422.961 380.147 422.961ZM419.314 438.957V440.434H397.22V438.957H402.853V432.258C400.734 431.191 399.462 429.455 399.462 427.281C399.462 423.562 403.072 421.156 408.185 421.129C413.326 421.156 416.935 423.562 416.935 427.281C416.935 429.428 415.691 431.15 413.627 432.203V438.957H419.314ZM408.185 422.578C404.084 422.551 401.103 424.465 401.103 427.281C401.103 430.043 404.084 431.984 408.185 431.957C412.287 431.984 415.295 430.043 415.295 427.281C415.295 424.465 412.287 422.551 408.185 422.578ZM404.548 438.957H411.904V432.859C410.796 433.188 409.539 433.352 408.185 433.352C406.859 433.352 405.629 433.188 404.548 432.887V438.957Z" fill="#878787"/>
<g filter="url(#filter3_d_1787_2202)">
<circle cx="98" cy="517" r="25" fill="#FFFAF8"/>
<circle cx="98" cy="517" r="24.5" stroke="#878787"/>
</g>
<path d="M150.492 506.43C154.02 506.43 156.508 509.684 156.508 514.77C156.508 519.855 154.02 523.109 150.492 523.109C146.965 523.109 144.504 519.855 144.531 514.77C144.504 509.684 146.965 506.43 150.492 506.43ZM150.492 507.961C147.949 507.961 146.145 510.75 146.145 514.77C146.145 518.816 147.949 521.578 150.492 521.578C153.09 521.578 154.84 518.816 154.867 514.77C154.84 510.75 153.09 507.961 150.492 507.961ZM162.633 504.516V514.332H166.789V515.809H162.633V528.633H160.91V504.516H162.633ZM176.015 509.109C176.015 512.473 178.859 515.426 182.359 516.574L181.456 517.941C178.64 516.971 176.247 514.893 175.195 512.199C174.169 515.098 171.777 517.354 168.905 518.434L167.976 517.066C171.476 515.809 174.265 512.664 174.292 509.109V507.742H168.441V506.293H181.812V507.742H176.015V509.109ZM187.39 504.516V519.117H185.667V504.516H187.39ZM187.39 520.457V528.633H185.667V521.906H171.284V520.457H187.39ZM216.943 504.516V528.633H215.248V504.516H216.943ZM209.834 507.168C209.806 513.977 206.388 520.129 198.459 523.957L197.502 522.535C204.119 519.404 207.66 514.469 208.111 508.59H198.568V507.168H209.834ZM242.657 517.887V519.363H220.591V517.887H230.762V515.07H223.489V509.438H238.063V506.594H223.407V505.172H239.786V510.777H225.184V513.648H240.305V515.07H232.458V517.887H242.657ZM239.923 521.359V528.359H238.173V522.809H223.052V521.359H239.923ZM258.117 512.582V514.004H253.086V517.668C255.451 517.559 257.816 517.395 260.004 517.148L260.113 518.461C254.918 519.172 249.066 519.336 244.5 519.336L244.227 517.887C246.4 517.873 248.848 517.832 251.363 517.75V514.004H246.469V506.129H257.926V507.578H248.219V512.582H258.117ZM263.887 504.543V522.535H262.164V504.543H263.887ZM264.734 526.609V528.059H248.465V521.332H250.16V526.609H264.734ZM293.549 504.516V518.898H291.827V512.391H286.604V510.941H291.827V504.516H293.549ZM285.62 519.719C290.596 519.719 293.631 521.332 293.631 524.148C293.631 526.965 290.596 528.578 285.62 528.605C280.643 528.578 277.608 526.965 277.635 524.148C277.608 521.332 280.643 519.719 285.62 519.719ZM285.62 521.086C281.764 521.086 279.303 522.262 279.33 524.148C279.303 526.035 281.764 527.184 285.62 527.184C289.475 527.184 291.936 526.035 291.936 524.148C291.936 522.262 289.475 521.086 285.62 521.086ZM281.819 509.055C281.819 512.309 284.471 515.316 287.889 516.492L286.987 517.887C284.266 516.875 282.038 514.783 281.026 512.199C279.987 515.139 277.608 517.477 274.737 518.598L273.834 517.203C277.307 515.918 280.096 512.664 280.096 509.082V507.824H274.436V506.375H287.397V507.824H281.819V509.055ZM319.263 523.984V525.461H297.17V523.984H307.287V518.543H299.849V506.266H301.599V510.805H314.779V506.266H316.474V518.543H309.009V523.984H319.263ZM301.599 517.094H314.779V512.254H301.599V517.094ZM339.235 504.516V514.496H343.309V515.973H339.235V528.633H337.512V504.516H339.235ZM333.055 507.141C333.028 513.84 329.692 520.047 321.899 523.902L320.942 522.535C327.368 519.363 330.868 514.414 331.305 508.59H322.009V507.141H333.055ZM354.679 518.652V521.879H359.683V518.652H361.269V528.277H353.038V518.652H354.679ZM354.679 526.883H359.683V523.246H354.679V526.883ZM368.05 520.648C368.05 523.219 369.691 525.98 372.644 527.129L371.714 528.469C369.431 527.512 367.927 525.68 367.202 523.574C366.464 525.666 364.933 527.498 362.718 528.469L361.816 527.129C364.714 525.926 366.355 523.164 366.382 520.648V518.516H368.05V520.648ZM356.839 505.637C360.12 505.637 362.554 507.496 362.964 510.34H368.378V504.516H370.101V517.285H368.378V511.816H362.991C362.622 514.715 360.161 516.629 356.839 516.629C353.175 516.629 350.605 514.414 350.632 511.133C350.605 507.852 353.175 505.637 356.839 505.637ZM356.839 507.086C354.159 507.086 352.273 508.809 352.273 511.133C352.273 513.457 354.159 515.18 356.839 515.207C359.464 515.18 361.351 513.457 361.351 511.133C361.351 508.809 359.464 507.086 356.839 507.086ZM380.147 506.43C383.442 506.43 385.793 509.314 386.08 513.895H391.905V504.516H393.6V528.66H391.905V515.316H386.108C385.903 520.088 383.524 523.109 380.147 523.109C376.62 523.109 374.159 519.855 374.186 514.77C374.159 509.684 376.62 506.43 380.147 506.43ZM380.147 507.961C377.577 507.961 375.827 510.75 375.827 514.77C375.827 518.816 377.577 521.578 380.147 521.578C382.69 521.578 384.467 518.816 384.467 514.77C384.467 510.75 382.69 507.961 380.147 507.961ZM419.314 523.957V525.434H397.22V523.957H402.853V517.258C400.734 516.191 399.462 514.455 399.462 512.281C399.462 508.562 403.072 506.156 408.185 506.129C413.326 506.156 416.935 508.562 416.935 512.281C416.935 514.428 415.691 516.15 413.627 517.203V523.957H419.314ZM408.185 507.578C404.084 507.551 401.103 509.465 401.103 512.281C401.103 515.043 404.084 516.984 408.185 516.957C412.287 516.984 415.295 515.043 415.295 512.281C415.295 509.465 412.287 507.551 408.185 507.578ZM404.548 523.957H411.904V517.859C410.796 518.188 409.539 518.352 408.185 518.352C406.859 518.352 405.629 518.188 404.548 517.887V523.957Z" fill="#878787"/>
</g>
<defs>
<filter id="filter0_d_1787_2202" x="0" y="0" width="1208" height="608" filterUnits="userSpaceOnUse" color-interpolation-filters="sRGB">
<feFlood flood-opacity="0" result="BackgroundImageFix"/>
<feColorMatrix in="SourceAlpha" type="matrix" values="0 0 0 0 0 0 0 0 0 0 0 0 0 0 0 0 0 0 127 0" result="hardAlpha"/>
<feOffset dy="4"/>
<feGaussianBlur stdDeviation="2"/>
<feComposite in2="hardAlpha" operator="out"/>
<feColorMatrix type="matrix" values="0 0 0 0 0.843137 0 0 0 0 0.454902 0 0 0 0 0.607843 0 0 0 0.04 0"/>
<feBlend mode="normal" in2="BackgroundImageFix" result="effect1_dropShadow_1787_2202"/>
<feBlend mode="normal" in="SourceGraphic" in2="effect1_dropShadow_1787_2202" result="shape"/>
</filter>
<filter id="filter1_d_1787_2202" x="69" y="322" width="58" height="58" filterUnits="userSpaceOnUse" color-interpolation-filters="sRGB">
<feFlood flood-opacity="0" result="BackgroundImageFix"/>
<feColorMatrix in="SourceAlpha" type="matrix" values="0 0 0 0 0 0 0 0 0 0 0 0 0 0 0 0 0 0 127 0" result="hardAlpha"/>
<feOffset dy="4"/>
<feGaussianBlur stdDeviation="2"/>
<feComposite in2="hardAlpha" operator="out"/>
<feColorMatrix type="matrix" values="0 0 0 0 0.843137 0 0 0 0 0.454902 0 0 0 0 0.607843 0 0 0 0.25 0"/>
<feBlend mode="normal" in2="BackgroundImageFix" result="effect1_dropShadow_1787_2202"/>
<feBlend mode="normal" in="SourceGraphic" in2="effect1_dropShadow_1787_2202" result="shape"/>
</filter>
<filter id="filter2_d_1787_2202" x="69" y="407" width="58" height="58" filterUnits="userSpaceOnUse" color-interpolation-filters="sRGB">
<feFlood flood-opacity="0" result="BackgroundImageFix"/>
<feColorMatrix in="SourceAlpha" type="matrix" values="0 0 0 0 0 0 0 0 0 0 0 0 0 0 0 0 0 0 127 0" result="hardAlpha"/>
<feOffset dy="4"/>
<feGaussianBlur stdDeviation="2"/>
<feComposite in2="hardAlpha" operator="out"/>
<feColorMatrix type="matrix" values="0 0 0 0 0.843137 0 0 0 0 0.454902 0 0 0 0 0.607843 0 0 0 0.25 0"/>
<feBlend mode="normal" in2="BackgroundImageFix" result="effect1_dropShadow_1787_2202"/>
<feBlend mode="normal" in="SourceGraphic" in2="effect1_dropShadow_1787_2202" result="shape"/>
</filter>
<filter id="filter3_d_1787_2202" x="69" y="492" width="58" height="58" filterUnits="userSpaceOnUse" color-interpolation-filters="sRGB">
<feFlood flood-opacity="0" result="BackgroundImageFix"/>
<feColorMatrix in="SourceAlpha" type="matrix" values="0 0 0 0 0 0 0 0 0 0 0 0 0 0 0 0 0 0 127 0" result="hardAlpha"/>
<feOffset dy="4"/>
<feGaussianBlur stdDeviation="2"/>
<feComposite in2="hardAlpha" operator="out"/>
<feColorMatrix type="matrix" values="0 0 0 0 0.843137 0 0 0 0 0.454902 0 0 0 0 0.607843 0 0 0 0.25 0"/>
<feBlend mode="normal" in2="BackgroundImageFix" result="effect1_dropShadow_1787_2202"/>
<feBlend mode="normal" in="SourceGraphic" in2="effect1_dropShadow_1787_2202" result="shape"/>
</filter>
</defs>
</svg>
