<svg width="53" height="54" viewBox="0 0 53 54" fill="none" xmlns="http://www.w3.org/2000/svg">
<path d="M43.0625 6.29688H38.9219V5.46875C38.9219 4.80985 38.6601 4.17794 38.1942 3.71203C37.7283 3.24612 37.0964 2.98438 36.4375 2.98438C35.7786 2.98438 35.1467 3.24612 34.6808 3.71203C34.2149 4.17794 33.9531 4.80985 33.9531 5.46875V6.29688H19.0469V5.46875C19.0469 4.80985 18.7851 4.17794 18.3192 3.71203C17.8533 3.24612 17.2214 2.98438 16.5625 2.98438C15.9036 2.98438 15.2717 3.24612 14.8058 3.71203C14.3399 4.17794 14.0781 4.80985 14.0781 5.46875V6.29688H9.9375C8.83934 6.29688 7.78615 6.73312 7.00964 7.50964C6.23312 8.28615 5.79688 9.33934 5.79688 10.4375V43.5625C5.79688 44.6607 6.23312 45.7138 7.00964 46.4904C7.78615 47.2669 8.83934 47.7031 9.9375 47.7031H43.0625C44.1607 47.7031 45.2138 47.2669 45.9904 46.4904C46.7669 45.7138 47.2031 44.6607 47.2031 43.5625V10.4375C47.2031 9.33934 46.7669 8.28615 45.9904 7.50964C45.2138 6.73312 44.1607 6.29688 43.0625 6.29688ZM42.2344 42.7344H10.7656V11.2656H14.0781C14.0781 11.9245 14.3399 12.5564 14.8058 13.0223C15.2717 13.4883 15.9036 13.75 16.5625 13.75C17.2214 13.75 17.8533 13.4883 18.3192 13.0223C18.7851 12.5564 19.0469 11.9245 19.0469 11.2656H33.9531C33.9531 11.9245 34.2149 12.5564 34.6808 13.0223C35.1467 13.4883 35.7786 13.75 36.4375 13.75C37.0964 13.75 37.7283 13.4883 38.1942 13.0223C38.6601 12.5564 38.9219 11.9245 38.9219 11.2656H42.2344V42.7344ZM31.4688 17.8906C29.6343 17.8892 27.8643 18.567 26.5 19.7932C25.4279 18.8343 24.1012 18.2061 22.6801 17.9844C21.2589 17.7627 19.8039 17.957 18.4907 18.5438C17.1774 19.1306 16.0621 20.0848 15.2791 21.2914C14.4961 22.498 14.079 23.9054 14.0781 25.3438C14.0781 28.8633 16.0511 32.2917 19.9412 35.5338C21.6256 36.9288 23.4512 38.1438 25.3882 39.1589C25.7334 39.3317 26.114 39.4216 26.5 39.4216C26.886 39.4216 27.2666 39.3317 27.6118 39.1589C29.5488 38.1438 31.3744 36.9288 33.0587 35.5338C36.9489 32.2917 38.9219 28.8633 38.9219 25.3438C38.9219 23.3671 38.1366 21.4713 36.7389 20.0736C35.3412 18.6759 33.4454 17.8906 31.4688 17.8906ZM26.5 34.0991C23.7775 32.4718 19.0469 28.9109 19.0469 25.3438C19.0469 24.6849 19.3086 24.0529 19.7745 23.587C20.2404 23.1211 20.8724 22.8594 21.5312 22.8594C22.1901 22.8594 22.8221 23.1211 23.288 23.587C23.7539 24.0529 24.0156 24.6849 24.0156 25.3438C24.0156 26.0026 24.2774 26.6346 24.7433 27.1005C25.2092 27.5664 25.8411 27.8281 26.5 27.8281C27.1589 27.8281 27.7908 27.5664 28.2567 27.1005C28.7226 26.6346 28.9844 26.0026 28.9844 25.3438C28.9844 24.6849 29.2461 24.0529 29.712 23.587C30.1779 23.1211 30.8099 22.8594 31.4688 22.8594C32.1276 22.8594 32.7596 23.1211 33.2255 23.587C33.6914 24.0529 33.9531 24.6849 33.9531 25.3438C33.9531 28.9109 29.2204 32.4739 26.5 34.0991Z" fill="#D7749B"/>
</svg>
