<svg width="42" height="42" viewBox="0 0 42 42" fill="none" xmlns="http://www.w3.org/2000/svg">
<path d="M31.5 19.25C31.5 17.5718 30.31 16.1682 28.7333 15.8305C29.3633 14.7787 29.75 13.5625 29.75 12.25C29.75 8.3895 26.6105 5.25 22.75 5.25C20.0953 5.25 17.8133 6.74975 16.625 8.932C15.4367 6.74975 13.1547 5.25 10.5 5.25C6.6395 5.25 3.5 8.3895 3.5 12.25C3.5 13.8285 4.046 15.2722 4.92975 16.443C4.48864 16.7666 4.12952 17.1891 3.88123 17.6766C3.63293 18.164 3.50236 18.7029 3.5 19.25V33.25C3.5 35.1803 5.06975 36.75 7 36.75H28C29.9303 36.75 31.5 35.1803 31.5 33.25V28.6335L38.5 32.1335V19.8835L31.5 23.3835V19.25ZM22.75 8.75C24.6803 8.75 26.25 10.3197 26.25 12.25C26.25 14.1803 24.6803 15.75 22.75 15.75C20.8197 15.75 19.25 14.1803 19.25 12.25C19.25 10.3197 20.8197 8.75 22.75 8.75ZM10.5 8.75C12.4303 8.75 14 10.3197 14 12.25C14 14.1803 12.4303 15.75 10.5 15.75C8.56975 15.75 7 14.1803 7 12.25C7 10.3197 8.56975 8.75 10.5 8.75ZM7 33.25V19.25H28L28.0035 33.25H7Z" fill="#D7749B"/>
</svg>
