<svg width="50" height="50" viewBox="0 0 50 50" fill="none" xmlns="http://www.w3.org/2000/svg">
<path fill-rule="evenodd" clip-rule="evenodd" d="M38.5287 7.91882C42.8932 10.4626 45.9641 15.6272 45.8287 21.6522C45.6599 29.173 39.8078 35.8063 29.8307 41.7313C28.3516 42.6105 26.7932 43.7501 24.9995 43.7501C23.2391 43.7501 21.6141 42.5897 20.1662 41.7292C10.1932 35.8063 4.33907 29.1709 4.17032 21.6522C4.03491 15.6272 7.10574 10.4647 11.4703 7.91882C15.5537 5.54174 20.6828 5.52715 24.9995 9.03757C29.3162 5.52715 34.4453 5.53965 38.5287 7.91882ZM36.4307 11.5209C33.5266 9.82924 29.8974 9.88965 26.7557 13.0688C26.5254 13.3 26.2517 13.4834 25.9503 13.6086C25.6489 13.7337 25.3258 13.7982 24.9995 13.7982C24.6732 13.7982 24.35 13.7337 24.0487 13.6086C23.7473 13.4834 23.4736 13.3 23.2432 13.0688C20.1016 9.88965 16.4724 9.82924 13.5682 11.5209C10.5599 13.2751 8.23491 16.9959 8.33699 21.5626C8.45366 26.7938 12.587 32.3834 22.2953 38.1501C23.1453 38.6563 24.0328 39.3042 24.9995 39.573C25.9662 39.3042 26.8537 38.6563 27.7037 38.1501C37.412 32.3834 41.5453 26.7959 41.662 21.5605C41.7662 16.998 39.4391 13.2751 36.4307 11.5209Z" fill="#D7749B"/>
</svg>
