<svg width="48" height="48" viewBox="0 0 48 48" fill="none" xmlns="http://www.w3.org/2000/svg">
<path d="M41.9997 10.3598V33.9998C41.9993 35.7608 41.4179 37.4725 40.3456 38.8694C39.2733 40.2662 37.77 41.2703 36.0689 41.7258C34.3679 42.1813 32.564 42.0628 30.9372 41.3886C29.3103 40.7145 27.9514 39.5224 27.071 37.9972C26.1907 36.4721 25.8382 34.6991 26.0682 32.9531C26.2982 31.2072 27.0979 29.586 28.3432 28.3409C29.5884 27.0957 31.2098 26.2962 32.9557 26.0664C34.7016 25.8366 36.4746 26.1893 37.9997 27.0698V18.3618L17.9997 21.6938V35.9998C17.9997 36.1198 17.9897 36.2358 17.9697 36.3478C18.1133 37.8858 17.7441 39.428 16.9198 40.7343C16.0954 42.0406 14.8622 43.0375 13.4121 43.5698C11.9621 44.1021 10.3767 44.1398 8.90302 43.677C7.42932 43.2143 6.15005 42.2771 5.26453 41.0115C4.379 39.7459 3.93695 38.223 4.00726 36.6799C4.07756 35.1369 4.65626 33.6604 5.65321 32.4806C6.65015 31.3007 8.00934 30.4838 9.51902 30.157C11.0287 29.8302 12.6041 30.0119 13.9997 30.6738V13.6938C13.9996 12.7469 14.3354 11.8307 14.9473 11.1082C15.5593 10.3856 16.4077 9.90358 17.3417 9.74782L37.3417 6.41582C37.9146 6.32027 38.5015 6.35064 39.0615 6.50483C39.6215 6.65901 40.1412 6.9333 40.5845 7.30863C41.0277 7.68396 41.384 8.15133 41.6284 8.67825C41.8728 9.20516 41.9995 9.77898 41.9997 10.3598ZM10.9997 33.9998C10.204 33.9998 9.44098 34.3159 8.87837 34.8785C8.31576 35.4411 7.99969 36.2042 7.99969 36.9998C7.99969 37.7955 8.31576 38.5585 8.87837 39.1211C9.44098 39.6837 10.204 39.9998 10.9997 39.9998C11.7953 39.9998 12.5584 39.6837 13.121 39.1211C13.6836 38.5585 13.9997 37.7955 13.9997 36.9998C13.9997 36.2042 13.6836 35.4411 13.121 34.8785C12.5584 34.3159 11.7953 33.9998 10.9997 33.9998ZM33.9997 29.9998C32.9388 29.9998 31.9214 30.4212 31.1713 31.1714C30.4211 31.9215 29.9997 32.939 29.9997 33.9998C29.9997 35.0607 30.4211 36.0781 31.1713 36.8282C31.9214 37.5784 32.9388 37.9998 33.9997 37.9998C35.0606 37.9998 36.078 37.5784 36.8281 36.8282C37.5783 36.0781 37.9997 35.0607 37.9997 33.9998C37.9997 32.939 37.5783 31.9215 36.8281 31.1714C36.078 30.4212 35.0606 29.9998 33.9997 29.9998ZM37.9997 10.3598L17.9997 13.6938V17.6398L37.9997 14.3058V10.3598Z" fill="#D7749B"/>
</svg>
