<svg width="50" height="50" viewBox="0 0 50 50" fill="none" xmlns="http://www.w3.org/2000/svg">
<path d="M47.9173 12.5V22.9167H45.834V25H43.7506V27.0833H41.6673V29.1667H39.584V31.25H37.5006V33.3333H35.4173V35.4167H33.334V37.5H31.2506V39.5833H29.1673V41.6667H27.084V43.75H22.9173V41.6667H20.834V39.5833H18.7507V37.5H16.6673V35.4167H14.584V33.3333H12.5007V31.25H10.4173V29.1667H8.33398V27.0833H6.25065V25H4.16732V22.9167H2.08398V12.5H4.16732V10.4167H6.25065V8.33333H8.33398V6.25H20.834V8.33333H22.9173V10.4167H27.084V8.33333H29.1673V6.25H41.6673V8.33333H43.7506V10.4167H45.834V12.5H47.9173Z" fill="#D7749B"/>
</svg>
