<svg width="70" height="70" viewBox="0 0 70 70" fill="none" xmlns="http://www.w3.org/2000/svg">
<path fill-rule="evenodd" clip-rule="evenodd" d="M54.4573 9.35681C55.2928 9.21747 56.1486 9.26176 56.9653 9.48661C57.782 9.71146 58.5399 10.1115 59.1863 10.6588C59.8328 11.2062 60.3523 11.8878 60.7087 12.6562C61.0651 13.4246 61.2499 14.2614 61.2502 15.1085V49.5835C61.2496 52.1516 60.4017 54.6478 58.8379 56.6849C57.2742 58.722 55.0819 60.1862 52.6012 60.8505C50.1205 61.5148 47.4899 61.3419 45.1174 60.3588C42.7449 59.3757 40.7631 57.6373 39.4793 55.4131C38.1954 53.1889 37.6814 50.6032 38.0168 48.0571C38.3522 45.511 39.5184 43.1467 41.3344 41.3308C43.1505 39.515 45.5149 38.3491 48.0611 38.014C50.6072 37.6788 53.1928 38.1932 55.4169 39.4772V26.7751L26.2502 31.6372V52.5001C26.2502 52.6751 26.2356 52.8443 26.2065 53.0076C26.4159 55.2505 25.8775 57.4996 24.6753 59.4046C23.4732 61.3096 21.6747 62.7635 19.56 63.5397C17.4454 64.3159 15.1334 64.3709 12.9842 63.6961C10.8351 63.0213 8.96947 61.6546 7.67808 59.8089C6.38669 57.9632 5.74204 55.7422 5.84457 53.492C5.94709 51.2417 6.79104 49.0885 8.24491 47.3679C9.69879 45.6473 11.6809 44.4559 13.8825 43.9793C16.0842 43.5028 18.3816 43.7678 20.4169 44.7331V19.9706C20.4167 18.5897 20.9064 17.2536 21.7988 16.1998C22.6913 15.1461 23.9286 14.4431 25.2906 14.216L54.4573 9.35681ZM26.2502 25.7251L55.4169 20.8631V15.1085L26.2502 19.9706V25.7251Z" fill="#D7749B"/>
</svg>
