<svg width="782" height="782" viewBox="0 0 782 782" fill="none" xmlns="http://www.w3.org/2000/svg">
<g filter="url(#filter0_d_191_2192)">
<g filter="url(#filter1_d_191_2192)">
<path d="M568.07 129.133H229.879C221.173 129.133 214.115 136.191 214.115 144.897V610.316C214.115 619.022 221.173 626.08 229.879 626.08H568.07C576.776 626.08 583.834 619.022 583.834 610.316V144.897C583.834 136.191 576.776 129.133 568.07 129.133Z" fill="#9C8B83"/>
<path d="M568.07 129.133H229.879C221.173 129.133 214.115 136.191 214.115 144.897V610.316C214.115 619.022 221.173 626.08 229.879 626.08H568.07C576.776 626.08 583.834 619.022 583.834 610.316V144.897C583.834 136.191 576.776 129.133 568.07 129.133Z" stroke="#F1BCCB" stroke-width="14" stroke-miterlimit="10"/>
</g>
<g filter="url(#filter2_d_191_2192)">
<path d="M596.509 129.133H258.319C249.612 129.133 242.555 136.191 242.555 144.897V610.316C242.555 619.022 249.612 626.08 258.319 626.08H596.509C605.215 626.08 612.273 619.022 612.273 610.316V144.897C612.273 136.191 605.215 129.133 596.509 129.133Z" fill="#FFFAF9"/>
<path d="M596.509 129.133H258.319C249.612 129.133 242.555 136.191 242.555 144.897V610.316C242.555 619.022 249.612 626.08 258.319 626.08H596.509C605.215 626.08 612.273 619.022 612.273 610.316V144.897C612.273 136.191 605.215 129.133 596.509 129.133Z" stroke="#F1BCCB" stroke-width="14" stroke-miterlimit="10"/>
</g>
<path d="M268.211 198.652C272.847 198.652 276.605 194.894 276.605 190.258C276.605 185.622 272.847 181.863 268.211 181.863C263.575 181.863 259.816 185.622 259.816 190.258C259.816 194.894 263.575 198.652 268.211 198.652Z" fill="#DCDDDD"/>
<path d="M268.211 390.578C272.847 390.578 276.605 386.819 276.605 382.183C276.605 377.547 272.847 373.789 268.211 373.789C263.575 373.789 259.816 377.547 259.816 382.183C259.816 386.819 263.575 390.578 268.211 390.578Z" fill="#DCDDDD"/>
<path d="M268.211 582.519C272.847 582.519 276.605 578.761 276.605 574.125C276.605 569.489 272.847 565.73 268.211 565.73C263.575 565.73 259.816 569.489 259.816 574.125C259.816 578.761 263.575 582.519 268.211 582.519Z" fill="#DCDDDD"/>
<path d="M365.725 424.263C393.969 424.263 416.866 401.366 416.866 373.122C416.866 344.877 393.969 321.98 365.725 321.98C337.481 321.98 314.584 344.877 314.584 373.122C314.584 401.366 337.481 424.263 365.725 424.263Z" stroke="#F1BCCB" stroke-width="14" stroke-miterlimit="10"/>
<path d="M507.469 424.263C535.714 424.263 558.61 401.366 558.61 373.122C558.61 344.877 535.714 321.98 507.469 321.98C479.225 321.98 456.328 344.877 456.328 373.122C456.328 401.366 479.225 424.263 507.469 424.263Z" stroke="#F1BCCB" stroke-width="14" stroke-miterlimit="10"/>
<path d="M416.865 373.12C416.865 373.12 436.058 354.138 456.328 373.12" stroke="#F1BCCB" stroke-width="14" stroke-miterlimit="10"/>
<path d="M487.555 393.785C494.832 393.785 500.731 384.533 500.731 373.121C500.731 361.709 494.832 352.457 487.555 352.457C480.278 352.457 474.379 361.709 474.379 373.121C474.379 384.533 480.278 393.785 487.555 393.785Z" fill="#BF777A"/>
<path d="M378.901 393.785C386.178 393.785 392.077 384.533 392.077 373.121C392.077 361.709 386.178 352.457 378.901 352.457C371.624 352.457 365.725 361.709 365.725 373.121C365.725 384.533 371.624 393.785 378.901 393.785Z" fill="#BF777A"/>
<path d="M383.826 364.687C385.284 364.687 386.466 363.505 386.466 362.047C386.466 360.588 385.284 359.406 383.826 359.406C382.368 359.406 381.186 360.588 381.186 362.047C381.186 363.505 382.368 364.687 383.826 364.687Z" fill="white"/>
<path d="M492.808 364.687C494.267 364.687 495.449 363.505 495.449 362.047C495.449 360.588 494.267 359.406 492.808 359.406C491.35 359.406 490.168 360.588 490.168 362.047C490.168 363.505 491.35 364.687 492.808 364.687Z" fill="white"/>
<path d="M408.234 428.07C408.234 428.07 436.583 462.711 461.543 424.273" stroke="#BF777A" stroke-width="14" stroke-miterlimit="10" stroke-linecap="round"/>
<g filter="url(#filter3_d_191_2192)">
<path d="M268.211 190.26C268.211 190.26 99.9699 175.034 203.264 210.832" stroke="#BF777A" stroke-width="14" stroke-miterlimit="10" stroke-linecap="round" shape-rendering="crispEdges"/>
</g>
<g filter="url(#filter4_d_191_2192)">
<path d="M268.211 381.908C268.211 381.908 99.9699 366.683 203.264 402.48" stroke="#BF777A" stroke-width="14" stroke-miterlimit="10" stroke-linecap="round" shape-rendering="crispEdges"/>
</g>
<g filter="url(#filter5_d_191_2192)">
<path d="M268.211 573.838C268.211 573.838 99.9699 558.612 203.264 594.41" stroke="#BF777A" stroke-width="14" stroke-miterlimit="10" stroke-linecap="round" shape-rendering="crispEdges"/>
</g>
<path d="M354.701 281.7C347.434 281.7 343.801 278.9 343.801 273.3C343.801 272.367 344.001 271.533 344.401 270.8C344.801 270.067 345.201 269.3 345.601 268.5C344.667 267.967 343.834 267.3 343.101 266.5C342.434 265.7 342.101 264.667 342.101 263.4C342.101 262.267 342.334 261.367 342.801 260.7C343.267 259.967 343.801 259.2 344.401 258.4C344.267 258.267 344.134 258.233 344.001 258.3C343.934 258.3 343.867 258.233 343.801 258.1C342.601 257.433 341.534 256.5 340.601 255.3C339.734 254.1 339.301 252.8 339.301 251.4C339.301 250.133 339.601 249.033 340.201 248.1C340.801 247.1 341.567 246.167 342.501 245.3C341.367 244.167 340.467 243.067 339.801 242C339.134 240.867 338.801 239.433 338.801 237.7C338.801 234.967 339.801 232.733 341.801 231C340.601 230.467 339.767 229.7 339.301 228.7C338.901 227.633 338.701 226.5 338.701 225.3C338.701 224.433 338.834 223.533 339.101 222.6C339.434 221.667 339.901 220.833 340.501 220.1C341.101 219.3 341.834 218.633 342.701 218.1C343.634 217.567 344.701 217.267 345.901 217.2C346.634 217.133 347.301 217.167 347.901 217.3C348.501 217.433 349.067 217.733 349.601 218.2C350.667 216.8 351.967 215.767 353.501 215.1C355.101 214.433 356.767 214.1 358.501 214.1C360.834 214.1 362.601 214.633 363.801 215.7C365.001 216.767 366.001 217.833 366.801 218.9C367.334 218.167 368.134 217.633 369.201 217.3C370.267 216.967 371.467 216.8 372.801 216.8C375.201 216.8 377.001 217.3 378.201 218.3C379.401 219.233 380.367 220.767 381.101 222.9C382.501 222.833 383.801 223.033 385.001 223.5C386.201 223.9 387.267 224.5 388.201 225.3C389.134 226.1 389.867 227.067 390.401 228.2C390.934 229.333 391.201 230.567 391.201 231.9C391.201 233.5 390.767 234.833 389.901 235.9C389.034 236.967 387.967 237.767 386.701 238.3C387.434 239.233 388.034 240.267 388.501 241.4C388.967 242.467 389.201 243.567 389.201 244.7C389.201 246.833 388.734 248.533 387.801 249.8C386.867 251 385.401 252.067 383.401 253C384.067 254.133 384.567 255.233 384.901 256.3C385.301 257.3 385.501 258.433 385.501 259.7C385.434 260.833 385.334 261.6 385.201 262C385.134 262.333 385.001 262.7 384.801 263.1C387.001 263.633 388.701 264.633 389.901 266.1C391.167 267.567 391.801 269.333 391.801 271.4C391.801 272.867 391.467 274.167 390.801 275.3C390.134 276.433 389.301 277.4 388.301 278.2C387.301 278.933 386.167 279.5 384.901 279.9C383.701 280.3 382.534 280.5 381.401 280.5C379.401 280.5 377.601 280.1 376.001 279.3C374.467 278.5 373.167 277.433 372.101 276.1C371.034 274.767 370.267 273.267 369.801 271.6C369.334 269.867 369.234 268.1 369.501 266.3C367.567 265.833 366.101 264.967 365.101 263.7C364.167 262.367 363.801 260.8 364.001 259L362.301 259.4V259.7C362.434 260.233 362.567 260.733 362.701 261.2C362.834 261.6 362.901 262.067 362.901 262.6C362.901 263.333 362.801 264 362.601 264.6C362.467 265.133 362.134 265.633 361.601 266.1C362.267 266.833 362.801 267.8 363.201 269C363.601 270.2 363.801 271.567 363.801 273.1C363.801 276.1 362.901 278.267 361.101 279.6C359.367 281 357.234 281.7 354.701 281.7ZM360.501 243.8C360.834 243.933 361.067 244.033 361.201 244.1C361.334 244.1 361.501 244.1 361.701 244.1C362.701 244.1 363.501 243.633 364.101 242.7C364.767 241.7 365.101 240.667 365.101 239.6C365.101 238.467 364.634 237.4 363.701 236.4C362.834 235.333 361.634 234.767 360.101 234.7C360.234 235.433 360.434 236.533 360.701 238C360.967 239.4 360.901 241.333 360.501 243.8ZM404.955 277.1C403.889 277.367 402.889 277.367 401.955 277.1C401.022 276.767 400.222 276.3 399.555 275.7C398.889 275.1 398.355 274.4 397.955 273.6C397.555 272.733 397.355 271.833 397.355 270.9C397.355 270.033 397.455 269.167 397.655 268.3C397.855 267.433 398.222 266.633 398.755 265.9L401.055 263.4C400.389 262.933 399.822 262.4 399.355 261.8C398.889 261.2 398.655 260.433 398.655 259.5C398.655 258.967 398.689 258.467 398.755 258C398.822 257.533 398.989 257.1 399.255 256.7C399.255 256.633 399.355 256.467 399.555 256.2C399.822 255.867 399.955 255.633 399.955 255.5L400.155 255.2V254.9C399.155 254.367 398.255 253.733 397.455 253C396.722 252.267 396.355 251.3 396.355 250.1C396.355 248.967 396.522 247.9 396.855 246.9C397.255 245.833 397.755 244.833 398.355 243.9C395.822 242.967 394.555 241 394.555 238C394.555 236.867 394.722 235.833 395.055 234.9C395.389 233.9 395.822 232.867 396.355 231.8C395.822 231.467 395.322 231 394.855 230.4C394.455 229.733 394.255 229.067 394.255 228.4C394.255 227.533 394.422 226.733 394.755 226C395.155 225.2 395.655 224.5 396.255 223.9C396.855 223.3 397.522 222.833 398.255 222.5C398.989 222.1 399.722 221.9 400.455 221.9C400.989 220.1 401.922 218.633 403.255 217.5C404.589 216.3 406.222 215.7 408.155 215.7C409.022 215.7 409.855 215.933 410.655 216.4C411.455 216.8 412.122 217.333 412.655 218C413.255 218.667 413.722 219.433 414.055 220.3C414.455 221.1 414.689 221.933 414.755 222.8C414.889 222.8 415.122 222.833 415.455 222.9C415.789 222.9 416.022 222.9 416.155 222.9C418.222 223.3 419.789 224.333 420.855 226C421.922 227.667 422.455 229.3 422.455 230.9C422.455 232.367 422.155 233.733 421.555 235C420.955 236.2 420.022 237.2 418.755 238C420.089 238.467 421.355 239.2 422.555 240.2C423.755 241.133 424.355 242.367 424.355 243.9C424.355 245.1 423.955 246.3 423.155 247.5C422.422 248.633 421.689 249.567 420.955 250.3C421.889 250.9 422.689 251.667 423.355 252.6C424.022 253.467 424.355 254.5 424.355 255.7C424.355 257.633 423.922 259.033 423.055 259.9C422.189 260.7 421.055 261.567 419.655 262.5C420.722 263.5 421.522 264.6 422.055 265.8C422.589 266.933 422.855 268.267 422.855 269.8C422.855 271.467 422.355 273.033 421.355 274.5C420.422 275.967 419.155 276.7 417.555 276.7C417.222 276.7 416.955 276.667 416.755 276.6C416.555 276.467 416.289 276.4 415.955 276.4C415.822 277.867 415.222 278.933 414.155 279.6C413.089 280.333 411.889 280.7 410.555 280.7C409.022 280.7 407.822 280.3 406.955 279.5C406.155 278.767 405.489 277.967 404.955 277.1ZM448.823 272.3C448.823 274.367 448.256 276.233 447.123 277.9C445.989 279.567 444.123 280.4 441.523 280.4C437.723 280.267 435.156 279.5 433.823 278.1C432.489 276.7 431.723 275.033 431.523 273.1C431.323 271.767 431.389 270.533 431.723 269.4C432.056 268.267 432.756 267.167 433.823 266.1C433.623 265.967 433.323 265.733 432.923 265.4C432.589 265 432.389 264.733 432.323 264.6C431.789 264.067 431.323 263.5 430.923 262.9C430.589 262.233 430.423 261.533 430.423 260.8C430.489 259.533 430.823 258.367 431.423 257.3C432.089 256.233 432.923 255.3 433.923 254.5V254.3C433.523 253.633 433.156 252.967 432.823 252.3C432.556 251.567 432.423 250.767 432.423 249.9C432.489 248.9 432.789 248.033 433.323 247.3C433.923 246.5 434.556 245.767 435.223 245.1L435.123 244.8C434.989 244.733 434.789 244.633 434.523 244.5C434.256 244.367 434.089 244.233 434.023 244.1C433.889 243.967 433.623 243.733 433.223 243.4C432.823 243 432.556 242.7 432.423 242.5C432.089 242.167 431.889 241.767 431.823 241.3C431.756 240.767 431.723 240.233 431.723 239.7C431.789 237.967 432.156 236.6 432.823 235.6C433.556 234.533 434.556 233.467 435.823 232.4C433.956 230 432.956 227.867 432.823 226C432.756 224.067 433.189 222.433 434.123 221.1C435.056 219.7 436.289 218.633 437.823 217.9C439.423 217.1 440.956 216.633 442.423 216.5C444.023 216.367 445.589 216.4 447.123 216.6C448.723 216.8 450.156 217.233 451.423 217.9C452.756 218.5 453.856 219.4 454.723 220.6C455.589 221.733 456.156 223.167 456.423 224.9C457.289 224.233 458.289 223.833 459.423 223.7C460.623 223.567 461.789 223.667 462.923 224C464.123 224.333 465.189 224.9 466.123 225.7C467.056 226.5 467.723 227.467 468.123 228.6C468.256 228.133 468.456 227.667 468.723 227.2C468.989 226.667 469.289 226.233 469.623 225.9C470.556 224.9 471.756 224.1 473.223 223.5C474.756 222.9 476.223 222.533 477.623 222.4C478.356 219.733 480.123 217.9 482.923 216.9C485.789 215.833 489.256 215.467 493.323 215.8C495.523 216 497.356 216.6 498.823 217.6C500.289 218.533 501.456 219.767 502.323 221.3C503.189 222.767 503.789 224.4 504.123 226.2C504.456 227.933 504.523 229.7 504.323 231.5C504.323 231.567 504.289 231.7 504.223 231.9C504.223 232.033 504.223 232.133 504.223 232.2V232.7C505.289 233.033 506.389 233.833 507.523 235.1C508.656 236.367 509.489 237.933 510.023 239.8C510.556 241.6 510.689 243.633 510.423 245.9C510.156 248.1 509.189 250.333 507.523 252.6C508.389 253.2 509.056 253.9 509.523 254.7C509.989 255.5 510.323 256.267 510.523 257C510.723 257.733 510.823 258.433 510.823 259.1C510.889 259.7 510.923 260.1 510.923 260.3C510.856 261.567 510.489 262.567 509.823 263.3C509.223 264.033 508.389 264.767 507.323 265.5C507.656 266.7 507.956 267.733 508.223 268.6C508.489 269.4 508.523 270.567 508.323 272.1C508.056 273.767 507.256 275.333 505.923 276.8C504.589 278.2 502.323 278.967 499.123 279.1C496.789 279.167 494.823 278.9 493.223 278.3C491.689 277.633 490.423 276.8 489.423 275.8C488.489 274.733 487.823 273.533 487.423 272.2C487.023 270.867 486.856 269.5 486.923 268.1C486.923 267.433 487.023 266.667 487.223 265.8C487.423 264.933 487.689 264.1 488.023 263.3C488.356 262.5 488.756 261.767 489.223 261.1C489.756 260.433 490.323 259.933 490.923 259.6C490.123 258.667 489.456 257.433 488.923 255.9C488.389 254.367 488.156 253.033 488.223 251.9C488.356 249.167 489.356 246.8 491.223 244.8V244.7C490.156 243.967 489.323 243.2 488.723 242.4C488.189 241.6 487.756 240.633 487.423 239.5H487.323C487.189 239.5 486.989 239.6 486.723 239.8C486.523 239.933 486.389 240 486.323 240C486.189 240.133 485.956 240.267 485.623 240.4C485.356 240.467 485.189 240.567 485.123 240.7C485.856 242.233 486.123 243.7 485.923 245.1C485.723 246.7 484.989 248.1 483.723 249.3C482.456 250.433 480.823 251.233 478.823 251.7C478.889 253.567 478.256 255.167 476.923 256.5C475.656 257.833 473.456 258.433 470.323 258.3C469.189 258.233 468.056 257.9 466.923 257.3C465.789 256.633 465.056 255.533 464.723 254C463.923 254.2 463.189 254.233 462.523 254.1C461.856 253.967 461.289 253.8 460.823 253.6C459.889 253.2 459.123 252.533 458.523 251.6C457.989 250.6 457.723 249.467 457.723 248.2C457.723 247.733 457.723 247.3 457.723 246.9C457.789 246.5 457.856 246.133 457.923 245.8C457.189 245.667 456.423 245.467 455.623 245.2C454.889 244.867 453.856 244.067 452.523 242.8C451.923 243.533 451.456 244 451.123 244.2C450.856 244.4 450.523 244.567 450.123 244.7L451.423 247.8C451.689 248.333 451.823 248.833 451.823 249.3C451.823 249.767 451.823 250.3 451.823 250.9C451.823 251.9 451.656 252.833 451.323 253.7C451.056 254.5 450.556 255.167 449.823 255.7V255.9C449.889 255.9 449.989 256 450.123 256.2C450.256 256.4 450.389 256.5 450.523 256.5C450.589 256.5 450.689 256.567 450.823 256.7L450.923 256.8C452.656 257.533 453.756 258.633 454.223 260.1C454.756 261.5 454.989 263.033 454.923 264.7C454.856 266.833 454.389 268.633 453.523 270.1C452.656 271.5 451.089 272.233 448.823 272.3ZM528.569 277.1C527.502 277.367 526.502 277.367 525.569 277.1C524.635 276.767 523.835 276.3 523.169 275.7C522.502 275.1 521.969 274.4 521.569 273.6C521.169 272.733 520.969 271.833 520.969 270.9C520.969 270.033 521.069 269.167 521.269 268.3C521.469 267.433 521.835 266.633 522.369 265.9L524.669 263.4C524.002 262.933 523.435 262.4 522.969 261.8C522.502 261.2 522.269 260.433 522.269 259.5C522.269 258.967 522.302 258.467 522.369 258C522.435 257.533 522.602 257.1 522.869 256.7C522.869 256.633 522.969 256.467 523.169 256.2C523.435 255.867 523.569 255.633 523.569 255.5L523.769 255.2V254.9C522.769 254.367 521.869 253.733 521.069 253C520.335 252.267 519.969 251.3 519.969 250.1C519.969 248.967 520.135 247.9 520.469 246.9C520.869 245.833 521.369 244.833 521.969 243.9C519.435 242.967 518.169 241 518.169 238C518.169 236.867 518.335 235.833 518.669 234.9C519.002 233.9 519.435 232.867 519.969 231.8C519.435 231.467 518.935 231 518.469 230.4C518.069 229.733 517.869 229.067 517.869 228.4C517.869 227.533 518.035 226.733 518.369 226C518.769 225.2 519.269 224.5 519.869 223.9C520.469 223.3 521.135 222.833 521.869 222.5C522.602 222.1 523.335 221.9 524.069 221.9C524.602 220.1 525.535 218.633 526.869 217.5C528.202 216.3 529.835 215.7 531.769 215.7C532.635 215.7 533.469 215.933 534.269 216.4C535.069 216.8 535.735 217.333 536.269 218C536.869 218.667 537.335 219.433 537.669 220.3C538.069 221.1 538.302 221.933 538.369 222.8C538.502 222.8 538.735 222.833 539.069 222.9C539.402 222.9 539.635 222.9 539.769 222.9C541.835 223.3 543.402 224.333 544.469 226C545.535 227.667 546.069 229.3 546.069 230.9C546.069 232.367 545.769 233.733 545.169 235C544.569 236.2 543.635 237.2 542.369 238C543.702 238.467 544.969 239.2 546.169 240.2C547.369 241.133 547.969 242.367 547.969 243.9C547.969 245.1 547.569 246.3 546.769 247.5C546.035 248.633 545.302 249.567 544.569 250.3C545.502 250.9 546.302 251.667 546.969 252.6C547.635 253.467 547.969 254.5 547.969 255.7C547.969 257.633 547.535 259.033 546.669 259.9C545.802 260.7 544.669 261.567 543.269 262.5C544.335 263.5 545.135 264.6 545.669 265.8C546.202 266.933 546.469 268.267 546.469 269.8C546.469 271.467 545.969 273.033 544.969 274.5C544.035 275.967 542.769 276.7 541.169 276.7C540.835 276.7 540.569 276.667 540.369 276.6C540.169 276.467 539.902 276.4 539.569 276.4C539.435 277.867 538.835 278.933 537.769 279.6C536.702 280.333 535.502 280.7 534.169 280.7C532.635 280.7 531.435 280.3 530.569 279.5C529.769 278.767 529.102 277.967 528.569 277.1Z" fill="#F1BCCB"/>
</g>
<defs>
<filter id="filter0_d_191_2192" x="-4" y="0" width="790" height="790" filterUnits="userSpaceOnUse" color-interpolation-filters="sRGB">
<feFlood flood-opacity="0" result="BackgroundImageFix"/>
<feColorMatrix in="SourceAlpha" type="matrix" values="0 0 0 0 0 0 0 0 0 0 0 0 0 0 0 0 0 0 127 0" result="hardAlpha"/>
<feOffset dy="4"/>
<feGaussianBlur stdDeviation="2"/>
<feComposite in2="hardAlpha" operator="out"/>
<feColorMatrix type="matrix" values="0 0 0 0 0.843137 0 0 0 0 0.454902 0 0 0 0 0.607843 0 0 0 0.25 0"/>
<feBlend mode="normal" in2="BackgroundImageFix" result="effect1_dropShadow_191_2192"/>
<feBlend mode="normal" in="SourceGraphic" in2="effect1_dropShadow_191_2192" result="shape"/>
</filter>
<filter id="filter1_d_191_2192" x="203.115" y="122.133" width="391.719" height="518.945" filterUnits="userSpaceOnUse" color-interpolation-filters="sRGB">
<feFlood flood-opacity="0" result="BackgroundImageFix"/>
<feColorMatrix in="SourceAlpha" type="matrix" values="0 0 0 0 0 0 0 0 0 0 0 0 0 0 0 0 0 0 127 0" result="hardAlpha"/>
<feOffset dy="4"/>
<feGaussianBlur stdDeviation="2"/>
<feComposite in2="hardAlpha" operator="out"/>
<feColorMatrix type="matrix" values="0 0 0 0 0.843137 0 0 0 0 0.454902 0 0 0 0 0.607843 0 0 0 0.2 0"/>
<feBlend mode="normal" in2="BackgroundImageFix" result="effect1_dropShadow_191_2192"/>
<feBlend mode="normal" in="SourceGraphic" in2="effect1_dropShadow_191_2192" result="shape"/>
</filter>
<filter id="filter2_d_191_2192" x="231.555" y="122.133" width="391.719" height="518.945" filterUnits="userSpaceOnUse" color-interpolation-filters="sRGB">
<feFlood flood-opacity="0" result="BackgroundImageFix"/>
<feColorMatrix in="SourceAlpha" type="matrix" values="0 0 0 0 0 0 0 0 0 0 0 0 0 0 0 0 0 0 127 0" result="hardAlpha"/>
<feOffset dy="4"/>
<feGaussianBlur stdDeviation="2"/>
<feComposite in2="hardAlpha" operator="out"/>
<feColorMatrix type="matrix" values="0 0 0 0 0.843137 0 0 0 0 0.454902 0 0 0 0 0.607843 0 0 0 0.2 0"/>
<feBlend mode="normal" in2="BackgroundImageFix" result="effect1_dropShadow_191_2192"/>
<feBlend mode="normal" in="SourceGraphic" in2="effect1_dropShadow_191_2192" result="shape"/>
</filter>
<filter id="filter3_d_191_2192" x="158.707" y="180.043" width="120.504" height="45.7891" filterUnits="userSpaceOnUse" color-interpolation-filters="sRGB">
<feFlood flood-opacity="0" result="BackgroundImageFix"/>
<feColorMatrix in="SourceAlpha" type="matrix" values="0 0 0 0 0 0 0 0 0 0 0 0 0 0 0 0 0 0 127 0" result="hardAlpha"/>
<feOffset dy="4"/>
<feGaussianBlur stdDeviation="2"/>
<feComposite in2="hardAlpha" operator="out"/>
<feColorMatrix type="matrix" values="0 0 0 0 0.843137 0 0 0 0 0.454902 0 0 0 0 0.607843 0 0 0 0.2 0"/>
<feBlend mode="normal" in2="BackgroundImageFix" result="effect1_dropShadow_191_2192"/>
<feBlend mode="normal" in="SourceGraphic" in2="effect1_dropShadow_191_2192" result="shape"/>
</filter>
<filter id="filter4_d_191_2192" x="158.707" y="371.691" width="120.504" height="45.7891" filterUnits="userSpaceOnUse" color-interpolation-filters="sRGB">
<feFlood flood-opacity="0" result="BackgroundImageFix"/>
<feColorMatrix in="SourceAlpha" type="matrix" values="0 0 0 0 0 0 0 0 0 0 0 0 0 0 0 0 0 0 127 0" result="hardAlpha"/>
<feOffset dy="4"/>
<feGaussianBlur stdDeviation="2"/>
<feComposite in2="hardAlpha" operator="out"/>
<feColorMatrix type="matrix" values="0 0 0 0 0.843137 0 0 0 0 0.454902 0 0 0 0 0.607843 0 0 0 0.2 0"/>
<feBlend mode="normal" in2="BackgroundImageFix" result="effect1_dropShadow_191_2192"/>
<feBlend mode="normal" in="SourceGraphic" in2="effect1_dropShadow_191_2192" result="shape"/>
</filter>
<filter id="filter5_d_191_2192" x="158.707" y="563.621" width="120.504" height="45.7891" filterUnits="userSpaceOnUse" color-interpolation-filters="sRGB">
<feFlood flood-opacity="0" result="BackgroundImageFix"/>
<feColorMatrix in="SourceAlpha" type="matrix" values="0 0 0 0 0 0 0 0 0 0 0 0 0 0 0 0 0 0 127 0" result="hardAlpha"/>
<feOffset dy="4"/>
<feGaussianBlur stdDeviation="2"/>
<feComposite in2="hardAlpha" operator="out"/>
<feColorMatrix type="matrix" values="0 0 0 0 0.843137 0 0 0 0 0.454902 0 0 0 0 0.607843 0 0 0 0.2 0"/>
<feBlend mode="normal" in2="BackgroundImageFix" result="effect1_dropShadow_191_2192"/>
<feBlend mode="normal" in="SourceGraphic" in2="effect1_dropShadow_191_2192" result="shape"/>
</filter>
</defs>
</svg>
