<svg width="170" height="170" viewBox="0 0 170 170" fill="none" xmlns="http://www.w3.org/2000/svg">
<g filter="url(#filter0_d_868_2609)">
<g filter="url(#filter1_d_868_2609)">
<path d="M123.494 28.0723H49.9738C48.0812 28.0723 46.5469 29.6066 46.5469 31.4992V132.677C46.5469 134.57 48.0812 136.104 49.9738 136.104H123.494C125.386 136.104 126.92 134.57 126.92 132.677V31.4992C126.92 29.6066 125.386 28.0723 123.494 28.0723Z" fill="#9C8B83"/>
<path d="M123.494 28.0723H49.9738C48.0812 28.0723 46.5469 29.6066 46.5469 31.4992V132.677C46.5469 134.57 48.0812 136.104 49.9738 136.104H123.494C125.386 136.104 126.92 134.57 126.92 132.677V31.4992C126.92 29.6066 125.386 28.0723 123.494 28.0723Z" stroke="#F1BCCB" stroke-width="4" stroke-miterlimit="10"/>
</g>
<g filter="url(#filter2_d_868_2609)">
<path d="M129.675 28.0723H56.1555C54.2628 28.0723 52.7285 29.6066 52.7285 31.4992V132.677C52.7285 134.57 54.2628 136.104 56.1555 136.104H129.675C131.568 136.104 133.102 134.57 133.102 132.677V31.4992C133.102 29.6066 131.568 28.0723 129.675 28.0723Z" fill="#FFFAF9"/>
<path d="M129.675 28.0723H56.1555C54.2628 28.0723 52.7285 29.6066 52.7285 31.4992V132.677C52.7285 134.57 54.2628 136.104 56.1555 136.104H129.675C131.568 136.104 133.102 134.57 133.102 132.677V31.4992C133.102 29.6066 131.568 28.0723 129.675 28.0723Z" stroke="#F1BCCB" stroke-width="4" stroke-miterlimit="10"/>
</g>
<path d="M58.3073 43.1849C59.3151 43.1849 60.1321 42.3679 60.1321 41.36C60.1321 40.3522 59.3151 39.5352 58.3073 39.5352C57.2994 39.5352 56.4824 40.3522 56.4824 41.36C56.4824 42.3679 57.2994 43.1849 58.3073 43.1849Z" fill="#DCDDDD"/>
<path d="M58.3073 84.9095C59.3151 84.9095 60.1321 84.0925 60.1321 83.0846C60.1321 82.0768 59.3151 81.2598 58.3073 81.2598C57.2994 81.2598 56.4824 82.0768 56.4824 83.0846C56.4824 84.0925 57.2994 84.9095 58.3073 84.9095Z" fill="#DCDDDD"/>
<path d="M58.3073 126.634C59.3151 126.634 60.1321 125.817 60.1321 124.809C60.1321 123.801 59.3151 122.984 58.3073 122.984C57.2994 122.984 56.4824 123.801 56.4824 124.809C56.4824 125.817 57.2994 126.634 58.3073 126.634Z" fill="#DCDDDD"/>
<path d="M79.5063 92.2313C85.6464 92.2313 90.6239 87.2538 90.6239 81.1137C90.6239 74.9736 85.6464 69.9961 79.5063 69.9961C73.3662 69.9961 68.3887 74.9736 68.3887 81.1137C68.3887 87.2538 73.3662 92.2313 79.5063 92.2313Z" stroke="#F1BCCB" stroke-width="4" stroke-miterlimit="10"/>
<path d="M110.321 92.2313C116.461 92.2313 121.438 87.2538 121.438 81.1137C121.438 74.9736 116.461 69.9961 110.321 69.9961C104.181 69.9961 99.2031 74.9736 99.2031 81.1137C99.2031 87.2538 104.181 92.2313 110.321 92.2313Z" stroke="#F1BCCB" stroke-width="4" stroke-miterlimit="10"/>
<path d="M90.623 81.1134C90.623 81.1134 94.7954 76.9867 99.2019 81.1134" stroke="#F1BCCB" stroke-width="4" stroke-miterlimit="10"/>
<path d="M105.989 85.6054C107.571 85.6054 108.854 83.5942 108.854 81.1133C108.854 78.6323 107.571 76.6211 105.989 76.6211C104.407 76.6211 103.125 78.6323 103.125 81.1133C103.125 83.5942 104.407 85.6054 105.989 85.6054Z" fill="#BF777A"/>
<path d="M82.3702 85.6054C83.9522 85.6054 85.2346 83.5942 85.2346 81.1133C85.2346 78.6323 83.9522 76.6211 82.3702 76.6211C80.7883 76.6211 79.5059 78.6323 79.5059 81.1133C79.5059 83.5942 80.7883 85.6054 82.3702 85.6054Z" fill="#BF777A"/>
<path d="M83.4412 79.2789C83.7582 79.2789 84.0152 79.0219 84.0152 78.7049C84.0152 78.3879 83.7582 78.1309 83.4412 78.1309C83.1242 78.1309 82.8672 78.3879 82.8672 78.7049C82.8672 79.0219 83.1242 79.2789 83.4412 79.2789Z" fill="white"/>
<path d="M107.133 79.2789C107.45 79.2789 107.707 79.0219 107.707 78.7049C107.707 78.3879 107.45 78.1309 107.133 78.1309C106.816 78.1309 106.559 78.3879 106.559 78.7049C106.559 79.0219 106.816 79.2789 107.133 79.2789Z" fill="white"/>
<path d="M88.7461 93.0597C88.7461 93.0597 94.9089 100.59 100.335 92.2344" stroke="#BF777A" stroke-width="4.07" stroke-miterlimit="10" stroke-linecap="round"/>
<g filter="url(#filter3_d_868_2609)">
<path d="M58.3075 41.3614C58.3075 41.3614 21.7333 38.0515 44.1884 45.8336" stroke="#BF777A" stroke-width="4" stroke-miterlimit="10" stroke-linecap="round" shape-rendering="crispEdges"/>
</g>
<g filter="url(#filter4_d_868_2609)">
<path d="M58.3075 83.0235C58.3075 83.0235 21.7333 79.7136 44.1884 87.4957" stroke="#BF777A" stroke-width="4" stroke-miterlimit="10" stroke-linecap="round" shape-rendering="crispEdges"/>
</g>
<g filter="url(#filter5_d_868_2609)">
<path d="M58.3075 124.746C58.3075 124.746 21.7333 121.436 44.1884 129.218" stroke="#BF777A" stroke-width="4" stroke-miterlimit="10" stroke-linecap="round" shape-rendering="crispEdges"/>
</g>
<path d="M76.78 59.54C75.3267 59.54 74.6 58.98 74.6 57.86C74.6 57.6733 74.64 57.5067 74.72 57.36C74.8 57.2133 74.88 57.06 74.96 56.9C74.7733 56.7933 74.6067 56.66 74.46 56.5C74.3267 56.34 74.26 56.1333 74.26 55.88C74.26 55.6533 74.3067 55.4733 74.4 55.34C74.4933 55.1933 74.6 55.04 74.72 54.88C74.6933 54.8533 74.6667 54.8467 74.64 54.86C74.6267 54.86 74.6133 54.8467 74.6 54.82C74.36 54.6867 74.1467 54.5 73.96 54.26C73.7867 54.02 73.7 53.76 73.7 53.48C73.7 53.2267 73.76 53.0067 73.88 52.82C74 52.62 74.1533 52.4333 74.34 52.26C74.1133 52.0333 73.9333 51.8133 73.8 51.6C73.6667 51.3733 73.6 51.0867 73.6 50.74C73.6 50.1933 73.8 49.7467 74.2 49.4C73.96 49.2933 73.7933 49.14 73.7 48.94C73.62 48.7267 73.58 48.5 73.58 48.26C73.58 48.0867 73.6067 47.9067 73.66 47.72C73.7267 47.5333 73.82 47.3667 73.94 47.22C74.06 47.06 74.2067 46.9267 74.38 46.82C74.5667 46.7133 74.78 46.6533 75.02 46.64C75.1667 46.6267 75.3 46.6333 75.42 46.66C75.54 46.6867 75.6533 46.7467 75.76 46.84C75.9733 46.56 76.2333 46.3533 76.54 46.22C76.86 46.0867 77.1933 46.02 77.54 46.02C78.0067 46.02 78.36 46.1267 78.6 46.34C78.84 46.5533 79.04 46.7667 79.2 46.98C79.3067 46.8333 79.4667 46.7267 79.68 46.66C79.8933 46.5933 80.1333 46.56 80.4 46.56C80.88 46.56 81.24 46.66 81.48 46.86C81.72 47.0467 81.9133 47.3533 82.06 47.78C82.34 47.7667 82.6 47.8067 82.84 47.9C83.08 47.98 83.2933 48.1 83.48 48.26C83.6667 48.42 83.8133 48.6133 83.92 48.84C84.0267 49.0667 84.08 49.3133 84.08 49.58C84.08 49.9 83.9933 50.1667 83.82 50.38C83.6467 50.5933 83.4333 50.7533 83.18 50.86C83.3267 51.0467 83.4467 51.2533 83.54 51.48C83.6333 51.6933 83.68 51.9133 83.68 52.14C83.68 52.5667 83.5867 52.9067 83.4 53.16C83.2133 53.4 82.92 53.6133 82.52 53.8C82.6533 54.0267 82.7533 54.2467 82.82 54.46C82.9 54.66 82.94 54.8867 82.94 55.14C82.9267 55.3667 82.9067 55.52 82.88 55.6C82.8667 55.6667 82.84 55.74 82.8 55.82C83.24 55.9267 83.58 56.1267 83.82 56.42C84.0733 56.7133 84.2 57.0667 84.2 57.48C84.2 57.7733 84.1333 58.0333 84 58.26C83.8667 58.4867 83.7 58.68 83.5 58.84C83.3 58.9867 83.0733 59.1 82.82 59.18C82.58 59.26 82.3467 59.3 82.12 59.3C81.72 59.3 81.36 59.22 81.04 59.06C80.7333 58.9 80.4733 58.6867 80.26 58.42C80.0467 58.1533 79.8933 57.8533 79.8 57.52C79.7067 57.1733 79.6867 56.82 79.74 56.46C79.3533 56.3667 79.06 56.1933 78.86 55.94C78.6733 55.6733 78.6 55.36 78.64 55L78.3 55.08V55.14C78.3267 55.2467 78.3533 55.3467 78.38 55.44C78.4067 55.52 78.42 55.6133 78.42 55.72C78.42 55.8667 78.4 56 78.36 56.12C78.3333 56.2267 78.2667 56.3267 78.16 56.42C78.2933 56.5667 78.4 56.76 78.48 57C78.56 57.24 78.6 57.5133 78.6 57.82C78.6 58.42 78.42 58.8533 78.06 59.12C77.7133 59.4 77.2867 59.54 76.78 59.54ZM77.94 51.96C78.0067 51.9867 78.0533 52.0067 78.08 52.02C78.1067 52.02 78.14 52.02 78.18 52.02C78.38 52.02 78.54 51.9267 78.66 51.74C78.7933 51.54 78.86 51.3333 78.86 51.12C78.86 50.8933 78.7667 50.68 78.58 50.48C78.4067 50.2667 78.1667 50.1533 77.86 50.14C77.8867 50.2867 77.9267 50.5067 77.98 50.8C78.0333 51.08 78.02 51.4667 77.94 51.96ZM86.8309 58.62C86.6176 58.6733 86.4176 58.6733 86.2309 58.62C86.0443 58.5533 85.8843 58.46 85.7509 58.34C85.6176 58.22 85.5109 58.08 85.4309 57.92C85.3509 57.7467 85.3109 57.5667 85.3109 57.38C85.3109 57.2067 85.3309 57.0333 85.3709 56.86C85.4109 56.6867 85.4843 56.5267 85.5909 56.38L86.0509 55.88C85.9176 55.7867 85.8043 55.68 85.7109 55.56C85.6176 55.44 85.5709 55.2867 85.5709 55.1C85.5709 54.9933 85.5776 54.8933 85.5909 54.8C85.6043 54.7067 85.6376 54.62 85.6909 54.54C85.6909 54.5267 85.7109 54.4933 85.7509 54.44C85.8043 54.3733 85.8309 54.3267 85.8309 54.3L85.8709 54.24V54.18C85.6709 54.0733 85.4909 53.9467 85.3309 53.8C85.1843 53.6533 85.1109 53.46 85.1109 53.22C85.1109 52.9933 85.1443 52.78 85.2109 52.58C85.2909 52.3667 85.3909 52.1667 85.5109 51.98C85.0043 51.7933 84.7509 51.4 84.7509 50.8C84.7509 50.5733 84.7843 50.3667 84.8509 50.18C84.9176 49.98 85.0043 49.7733 85.1109 49.56C85.0043 49.4933 84.9043 49.4 84.8109 49.28C84.7309 49.1467 84.6909 49.0133 84.6909 48.88C84.6909 48.7067 84.7243 48.5467 84.7909 48.4C84.8709 48.24 84.9709 48.1 85.0909 47.98C85.2109 47.86 85.3443 47.7667 85.4909 47.7C85.6376 47.62 85.7843 47.58 85.9309 47.58C86.0376 47.22 86.2243 46.9267 86.4909 46.7C86.7576 46.46 87.0843 46.34 87.4709 46.34C87.6443 46.34 87.8109 46.3867 87.9709 46.48C88.1309 46.56 88.2643 46.6667 88.3709 46.8C88.4909 46.9333 88.5843 47.0867 88.6509 47.26C88.7309 47.42 88.7776 47.5867 88.7909 47.76C88.8176 47.76 88.8643 47.7667 88.9309 47.78C88.9976 47.78 89.0443 47.78 89.0709 47.78C89.4843 47.86 89.7976 48.0667 90.0109 48.4C90.2243 48.7333 90.3309 49.06 90.3309 49.38C90.3309 49.6733 90.2709 49.9467 90.1509 50.2C90.0309 50.44 89.8443 50.64 89.5909 50.8C89.8576 50.8933 90.1109 51.04 90.3509 51.24C90.5909 51.4267 90.7109 51.6733 90.7109 51.98C90.7109 52.22 90.6309 52.46 90.4709 52.7C90.3243 52.9267 90.1776 53.1133 90.0309 53.26C90.2176 53.38 90.3776 53.5333 90.5109 53.72C90.6443 53.8933 90.7109 54.1 90.7109 54.34C90.7109 54.7267 90.6243 55.0067 90.4509 55.18C90.2776 55.34 90.0509 55.5133 89.7709 55.7C89.9843 55.9 90.1443 56.12 90.2509 56.36C90.3576 56.5867 90.4109 56.8533 90.4109 57.16C90.4109 57.4933 90.3109 57.8067 90.1109 58.1C89.9243 58.3933 89.6709 58.54 89.3509 58.54C89.2843 58.54 89.2309 58.5333 89.1909 58.52C89.1509 58.4933 89.0976 58.48 89.0309 58.48C89.0043 58.7733 88.8843 58.9867 88.6709 59.12C88.4576 59.2667 88.2176 59.34 87.9509 59.34C87.6443 59.34 87.4043 59.26 87.2309 59.1C87.0709 58.9533 86.9376 58.7933 86.8309 58.62ZM95.6044 57.66C95.6044 58.0733 95.491 58.4467 95.2644 58.78C95.0377 59.1133 94.6644 59.28 94.1444 59.28C93.3844 59.2533 92.871 59.1 92.6044 58.82C92.3377 58.54 92.1844 58.2067 92.1444 57.82C92.1044 57.5533 92.1177 57.3067 92.1844 57.08C92.251 56.8533 92.391 56.6333 92.6044 56.42C92.5644 56.3933 92.5044 56.3467 92.4244 56.28C92.3577 56.2 92.3177 56.1467 92.3044 56.12C92.1977 56.0133 92.1044 55.9 92.0244 55.78C91.9577 55.6467 91.9244 55.5067 91.9244 55.36C91.9377 55.1067 92.0044 54.8733 92.1244 54.66C92.2577 54.4467 92.4244 54.26 92.6244 54.1V54.06C92.5444 53.9267 92.471 53.7933 92.4044 53.66C92.351 53.5133 92.3244 53.3533 92.3244 53.18C92.3377 52.98 92.3977 52.8067 92.5044 52.66C92.6244 52.5 92.751 52.3533 92.8844 52.22L92.8644 52.16C92.8377 52.1467 92.7977 52.1267 92.7444 52.1C92.691 52.0733 92.6577 52.0467 92.6444 52.02C92.6177 51.9933 92.5644 51.9467 92.4844 51.88C92.4044 51.8 92.351 51.74 92.3244 51.7C92.2577 51.6333 92.2177 51.5533 92.2044 51.46C92.191 51.3533 92.1844 51.2467 92.1844 51.14C92.1977 50.7933 92.271 50.52 92.4044 50.32C92.551 50.1067 92.751 49.8933 93.0044 49.68C92.631 49.2 92.431 48.7733 92.4044 48.4C92.391 48.0133 92.4777 47.6867 92.6644 47.42C92.851 47.14 93.0977 46.9267 93.4044 46.78C93.7244 46.62 94.031 46.5267 94.3244 46.5C94.6444 46.4733 94.9577 46.48 95.2644 46.52C95.5844 46.56 95.871 46.6467 96.1244 46.78C96.391 46.9 96.611 47.08 96.7844 47.32C96.9577 47.5467 97.071 47.8333 97.1244 48.18C97.2977 48.0467 97.4977 47.9667 97.7244 47.94C97.9644 47.9133 98.1977 47.9333 98.4244 48C98.6644 48.0667 98.8777 48.18 99.0644 48.34C99.251 48.5 99.3844 48.6933 99.4644 48.92C99.491 48.8267 99.531 48.7333 99.5844 48.64C99.6377 48.5333 99.6977 48.4467 99.7644 48.38C99.951 48.18 100.191 48.02 100.484 47.9C100.791 47.78 101.084 47.7067 101.364 47.68C101.511 47.1467 101.864 46.78 102.424 46.58C102.998 46.3667 103.691 46.2933 104.504 46.36C104.944 46.4 105.311 46.52 105.604 46.72C105.898 46.9067 106.131 47.1533 106.304 47.46C106.478 47.7533 106.598 48.08 106.664 48.44C106.731 48.7867 106.744 49.14 106.704 49.5C106.704 49.5133 106.698 49.54 106.684 49.58C106.684 49.6067 106.684 49.6267 106.684 49.64V49.74C106.898 49.8067 107.118 49.9667 107.344 50.22C107.571 50.4733 107.738 50.7867 107.844 51.16C107.951 51.52 107.978 51.9267 107.924 52.38C107.871 52.82 107.678 53.2667 107.344 53.72C107.518 53.84 107.651 53.98 107.744 54.14C107.838 54.3 107.904 54.4533 107.944 54.6C107.984 54.7467 108.004 54.8867 108.004 55.02C108.018 55.14 108.024 55.22 108.024 55.26C108.011 55.5133 107.938 55.7133 107.804 55.86C107.684 56.0067 107.518 56.1533 107.304 56.3C107.371 56.54 107.431 56.7467 107.484 56.92C107.538 57.08 107.544 57.3133 107.504 57.62C107.451 57.9533 107.291 58.2667 107.024 58.56C106.758 58.84 106.304 58.9933 105.664 59.02C105.198 59.0333 104.804 58.98 104.484 58.86C104.178 58.7267 103.924 58.56 103.724 58.36C103.538 58.1467 103.404 57.9067 103.324 57.64C103.244 57.3733 103.211 57.1 103.224 56.82C103.224 56.6867 103.244 56.5333 103.284 56.36C103.324 56.1867 103.378 56.02 103.444 55.86C103.511 55.7 103.591 55.5533 103.684 55.42C103.791 55.2867 103.904 55.1867 104.024 55.12C103.864 54.9333 103.731 54.6867 103.624 54.38C103.518 54.0733 103.471 53.8067 103.484 53.58C103.511 53.0333 103.711 52.56 104.084 52.16V52.14C103.871 51.9933 103.704 51.84 103.584 51.68C103.478 51.52 103.391 51.3267 103.324 51.1H103.304C103.278 51.1 103.238 51.12 103.184 51.16C103.144 51.1867 103.118 51.2 103.104 51.2C103.078 51.2267 103.031 51.2533 102.964 51.28C102.911 51.2933 102.878 51.3133 102.864 51.34C103.011 51.6467 103.064 51.94 103.024 52.22C102.984 52.54 102.838 52.82 102.584 53.06C102.331 53.2867 102.004 53.4467 101.604 53.54C101.618 53.9133 101.491 54.2333 101.224 54.5C100.971 54.7667 100.531 54.8867 99.9044 54.86C99.6777 54.8467 99.451 54.78 99.2244 54.66C98.9977 54.5267 98.851 54.3067 98.7844 54C98.6244 54.04 98.4777 54.0467 98.3444 54.02C98.211 53.9933 98.0977 53.96 98.0044 53.92C97.8177 53.84 97.6644 53.7067 97.5444 53.52C97.4377 53.32 97.3844 53.0933 97.3844 52.84C97.3844 52.7467 97.3844 52.66 97.3844 52.58C97.3977 52.5 97.411 52.4267 97.4244 52.36C97.2777 52.3333 97.1244 52.2933 96.9644 52.24C96.8177 52.1733 96.611 52.0133 96.3444 51.76C96.2244 51.9067 96.131 52 96.0644 52.04C96.011 52.08 95.9444 52.1133 95.8644 52.14L96.1244 52.76C96.1777 52.8667 96.2044 52.9667 96.2044 53.06C96.2044 53.1533 96.2044 53.26 96.2044 53.38C96.2044 53.58 96.171 53.7667 96.1044 53.94C96.051 54.1 95.951 54.2333 95.8044 54.34V54.38C95.8177 54.38 95.8377 54.4 95.8644 54.44C95.891 54.48 95.9177 54.5 95.9444 54.5C95.9577 54.5 95.9777 54.5133 96.0044 54.54L96.0244 54.56C96.371 54.7067 96.591 54.9267 96.6844 55.22C96.791 55.5 96.8377 55.8067 96.8244 56.14C96.811 56.5667 96.7177 56.9267 96.5444 57.22C96.371 57.5 96.0577 57.6467 95.6044 57.66ZM111.554 58.62C111.34 58.6733 111.14 58.6733 110.954 58.62C110.767 58.5533 110.607 58.46 110.474 58.34C110.34 58.22 110.234 58.08 110.154 57.92C110.074 57.7467 110.034 57.5667 110.034 57.38C110.034 57.2067 110.054 57.0333 110.094 56.86C110.134 56.6867 110.207 56.5267 110.314 56.38L110.774 55.88C110.64 55.7867 110.527 55.68 110.434 55.56C110.34 55.44 110.294 55.2867 110.294 55.1C110.294 54.9933 110.3 54.8933 110.314 54.8C110.327 54.7067 110.36 54.62 110.414 54.54C110.414 54.5267 110.434 54.4933 110.474 54.44C110.527 54.3733 110.554 54.3267 110.554 54.3L110.594 54.24V54.18C110.394 54.0733 110.214 53.9467 110.054 53.8C109.907 53.6533 109.834 53.46 109.834 53.22C109.834 52.9933 109.867 52.78 109.934 52.58C110.014 52.3667 110.114 52.1667 110.234 51.98C109.727 51.7933 109.474 51.4 109.474 50.8C109.474 50.5733 109.507 50.3667 109.574 50.18C109.64 49.98 109.727 49.7733 109.834 49.56C109.727 49.4933 109.627 49.4 109.534 49.28C109.454 49.1467 109.414 49.0133 109.414 48.88C109.414 48.7067 109.447 48.5467 109.514 48.4C109.594 48.24 109.694 48.1 109.814 47.98C109.934 47.86 110.067 47.7667 110.214 47.7C110.36 47.62 110.507 47.58 110.654 47.58C110.76 47.22 110.947 46.9267 111.214 46.7C111.48 46.46 111.807 46.34 112.194 46.34C112.367 46.34 112.534 46.3867 112.694 46.48C112.854 46.56 112.987 46.6667 113.094 46.8C113.214 46.9333 113.307 47.0867 113.374 47.26C113.454 47.42 113.5 47.5867 113.514 47.76C113.54 47.76 113.587 47.7667 113.654 47.78C113.72 47.78 113.767 47.78 113.794 47.78C114.207 47.86 114.52 48.0667 114.734 48.4C114.947 48.7333 115.054 49.06 115.054 49.38C115.054 49.6733 114.994 49.9467 114.874 50.2C114.754 50.44 114.567 50.64 114.314 50.8C114.58 50.8933 114.834 51.04 115.074 51.24C115.314 51.4267 115.434 51.6733 115.434 51.98C115.434 52.22 115.354 52.46 115.194 52.7C115.047 52.9267 114.9 53.1133 114.754 53.26C114.94 53.38 115.1 53.5333 115.234 53.72C115.367 53.8933 115.434 54.1 115.434 54.34C115.434 54.7267 115.347 55.0067 115.174 55.18C115 55.34 114.774 55.5133 114.494 55.7C114.707 55.9 114.867 56.12 114.974 56.36C115.08 56.5867 115.134 56.8533 115.134 57.16C115.134 57.4933 115.034 57.8067 114.834 58.1C114.647 58.3933 114.394 58.54 114.074 58.54C114.007 58.54 113.954 58.5333 113.914 58.52C113.874 58.4933 113.82 58.48 113.754 58.48C113.727 58.7733 113.607 58.9867 113.394 59.12C113.18 59.2667 112.94 59.34 112.674 59.34C112.367 59.34 112.127 59.26 111.954 59.1C111.794 58.9533 111.66 58.7933 111.554 58.62Z" fill="#F1BCCB"/>
</g>
<defs>
<filter id="filter0_d_868_2609" x="-4" y="0" width="178" height="178" filterUnits="userSpaceOnUse" color-interpolation-filters="sRGB">
<feFlood flood-opacity="0" result="BackgroundImageFix"/>
<feColorMatrix in="SourceAlpha" type="matrix" values="0 0 0 0 0 0 0 0 0 0 0 0 0 0 0 0 0 0 127 0" result="hardAlpha"/>
<feOffset dy="4"/>
<feGaussianBlur stdDeviation="2"/>
<feComposite in2="hardAlpha" operator="out"/>
<feColorMatrix type="matrix" values="0 0 0 0 0.843137 0 0 0 0 0.454902 0 0 0 0 0.607843 0 0 0 0.25 0"/>
<feBlend mode="normal" in2="BackgroundImageFix" result="effect1_dropShadow_868_2609"/>
<feBlend mode="normal" in="SourceGraphic" in2="effect1_dropShadow_868_2609" result="shape"/>
</filter>
<filter id="filter1_d_868_2609" x="40.5469" y="26.0723" width="92.373" height="120.031" filterUnits="userSpaceOnUse" color-interpolation-filters="sRGB">
<feFlood flood-opacity="0" result="BackgroundImageFix"/>
<feColorMatrix in="SourceAlpha" type="matrix" values="0 0 0 0 0 0 0 0 0 0 0 0 0 0 0 0 0 0 127 0" result="hardAlpha"/>
<feOffset dy="4"/>
<feGaussianBlur stdDeviation="2"/>
<feComposite in2="hardAlpha" operator="out"/>
<feColorMatrix type="matrix" values="0 0 0 0 0.843137 0 0 0 0 0.454902 0 0 0 0 0.607843 0 0 0 0.2 0"/>
<feBlend mode="normal" in2="BackgroundImageFix" result="effect1_dropShadow_868_2609"/>
<feBlend mode="normal" in="SourceGraphic" in2="effect1_dropShadow_868_2609" result="shape"/>
</filter>
<filter id="filter2_d_868_2609" x="46.7285" y="26.0723" width="92.373" height="120.031" filterUnits="userSpaceOnUse" color-interpolation-filters="sRGB">
<feFlood flood-opacity="0" result="BackgroundImageFix"/>
<feColorMatrix in="SourceAlpha" type="matrix" values="0 0 0 0 0 0 0 0 0 0 0 0 0 0 0 0 0 0 127 0" result="hardAlpha"/>
<feOffset dy="4"/>
<feGaussianBlur stdDeviation="2"/>
<feComposite in2="hardAlpha" operator="out"/>
<feColorMatrix type="matrix" values="0 0 0 0 0.843137 0 0 0 0 0.454902 0 0 0 0 0.607843 0 0 0 0.2 0"/>
<feBlend mode="normal" in2="BackgroundImageFix" result="effect1_dropShadow_868_2609"/>
<feBlend mode="normal" in="SourceGraphic" in2="effect1_dropShadow_868_2609" result="shape"/>
</filter>
<filter id="filter3_d_868_2609" x="30.8926" y="38.6621" width="33.4141" height="17.1719" filterUnits="userSpaceOnUse" color-interpolation-filters="sRGB">
<feFlood flood-opacity="0" result="BackgroundImageFix"/>
<feColorMatrix in="SourceAlpha" type="matrix" values="0 0 0 0 0 0 0 0 0 0 0 0 0 0 0 0 0 0 127 0" result="hardAlpha"/>
<feOffset dy="4"/>
<feGaussianBlur stdDeviation="2"/>
<feComposite in2="hardAlpha" operator="out"/>
<feColorMatrix type="matrix" values="0 0 0 0 0.843137 0 0 0 0 0.454902 0 0 0 0 0.607843 0 0 0 0.2 0"/>
<feBlend mode="normal" in2="BackgroundImageFix" result="effect1_dropShadow_868_2609"/>
<feBlend mode="normal" in="SourceGraphic" in2="effect1_dropShadow_868_2609" result="shape"/>
</filter>
<filter id="filter4_d_868_2609" x="30.8926" y="80.3242" width="33.4141" height="17.1719" filterUnits="userSpaceOnUse" color-interpolation-filters="sRGB">
<feFlood flood-opacity="0" result="BackgroundImageFix"/>
<feColorMatrix in="SourceAlpha" type="matrix" values="0 0 0 0 0 0 0 0 0 0 0 0 0 0 0 0 0 0 127 0" result="hardAlpha"/>
<feOffset dy="4"/>
<feGaussianBlur stdDeviation="2"/>
<feComposite in2="hardAlpha" operator="out"/>
<feColorMatrix type="matrix" values="0 0 0 0 0.843137 0 0 0 0 0.454902 0 0 0 0 0.607843 0 0 0 0.2 0"/>
<feBlend mode="normal" in2="BackgroundImageFix" result="effect1_dropShadow_868_2609"/>
<feBlend mode="normal" in="SourceGraphic" in2="effect1_dropShadow_868_2609" result="shape"/>
</filter>
<filter id="filter5_d_868_2609" x="30.8926" y="122.047" width="33.4141" height="17.1719" filterUnits="userSpaceOnUse" color-interpolation-filters="sRGB">
<feFlood flood-opacity="0" result="BackgroundImageFix"/>
<feColorMatrix in="SourceAlpha" type="matrix" values="0 0 0 0 0 0 0 0 0 0 0 0 0 0 0 0 0 0 127 0" result="hardAlpha"/>
<feOffset dy="4"/>
<feGaussianBlur stdDeviation="2"/>
<feComposite in2="hardAlpha" operator="out"/>
<feColorMatrix type="matrix" values="0 0 0 0 0.843137 0 0 0 0 0.454902 0 0 0 0 0.607843 0 0 0 0.2 0"/>
<feBlend mode="normal" in2="BackgroundImageFix" result="effect1_dropShadow_868_2609"/>
<feBlend mode="normal" in="SourceGraphic" in2="effect1_dropShadow_868_2609" result="shape"/>
</filter>
</defs>
</svg>
