<svg width="1920" height="1005" viewBox="0 0 1920 1005" fill="none" xmlns="http://www.w3.org/2000/svg">
<g filter="url(#filter0_d_71_277)">
<path d="M454.371 1H113.15C94.311 1 77.0714 11.5887 68.5531 28.3916L3.40337 156.904C-0.148853 163.911 -2 171.656 -2 179.512V1004C-2 1004.55 -1.55229 1005 -1 1005H1919C1919.55 1005 1920 1004.55 1920 1004V185.175C1920 157.561 1897.61 135.175 1870 135.175H575.006C554.396 135.175 535.898 122.529 528.416 103.325L500.96 32.8497C493.479 13.6458 474.981 1 454.371 1Z" fill="#F6BFCF"/>
<path d="M167.437 0.505085C168.291 0.504737 169.152 0.504407 170.02 0.504097C187.317 0.497915 207.281 0.499223 226.89 0.504728C243.09 0.509275 259.048 0.516687 273.057 0.525104C282.438 0.530683 278.524 0.554473 283.76 0.561671C284.09 0.562124 284.455 0.562511 284.863 0.562824C298.325 0.573129 310.867 0.56013 324.171 0.572406C328.58 0.576605 323.092 0.618587 327.715 0.622028C332.055 0.625206 336.355 0.627527 340.631 0.629234C359.625 0.63682 378.131 0.632313 397.501 0.637257C399.22 0.637696 400.946 0.63821 402.68 0.638813C419.945 0.644826 437.171 0.650313 454.371 0.655352C454.371 0.655352 454.371 0.655352 454.371 0.655352C457.717 0.655341 461.086 0.992012 464.368 1.65827C467.656 2.32467 470.875 3.32154 473.964 4.62881C477.053 5.93577 480.011 7.5526 482.779 9.44579C485.547 11.3393 488.126 13.5098 490.463 15.9141C492.802 18.3197 494.897 20.9582 496.709 23.7795C498.52 26.5971 500.054 29.6135 501.267 32.7305C502.791 36.6464 504.316 40.5621 505.84 44.4774C507.364 48.3932 508.889 52.3088 510.413 56.2244C511.938 60.14 513.462 64.0556 514.987 67.9713C516.511 71.8867 518.036 75.8023 519.56 79.7182C521.085 83.6334 522.609 87.5489 524.134 91.465C525.658 95.38 527.183 99.2956 528.708 103.212C529.914 106.309 531.415 109.258 533.207 112.048C534.996 114.833 537.065 117.438 539.374 119.813C541.681 122.186 544.228 124.329 546.961 126.198C549.693 128.067 552.613 129.663 555.663 130.953C558.713 132.243 561.891 133.227 565.137 133.884C568.386 134.542 571.68 134.872 575.006 134.873C575.006 134.873 575.006 134.873 575.006 134.873C618.517 134.88 662.229 134.886 706.381 134.893C732.389 134.897 761.853 134.913 790.838 134.92C808.874 134.925 826.724 134.927 843.44 134.921C848.527 134.919 845.494 134.882 846.462 134.879C861.643 134.832 856.595 134.907 866.507 134.916C905.848 134.955 949.595 134.959 987.456 134.945C1003.56 134.939 987.413 134.865 1003.63 134.906C1004.76 134.909 1000.67 134.948 1005.09 134.952C1005.59 134.953 1006.12 134.953 1006.67 134.954C1016.99 134.961 1034.5 134.955 1041.87 134.958C1056.84 134.964 1059.31 134.964 1073.46 134.964C1092.81 134.965 1115.82 134.985 1136.58 134.976C1141.01 134.974 1135.15 134.934 1142.21 134.927C1149.28 134.92 1167.99 134.923 1174.3 134.933C1180.61 134.942 1177.93 134.974 1179.04 134.981C1188.23 135.042 1209.87 134.958 1212.65 134.955C1215.97 134.953 1219.25 134.951 1222.5 134.95C1269.13 134.926 1310.08 134.968 1354.63 134.968C1382.07 134.968 1410.96 134.959 1438.34 134.955C1447.05 134.954 1455.61 134.953 1463.92 134.954C1504.94 134.957 1539.7 134.978 1579.54 134.975C1583.75 134.974 1578.82 134.927 1583.96 134.927C1607.42 134.924 1630.81 134.924 1654.17 134.927C1685.14 134.931 1716.07 134.94 1747.04 134.958C1752.49 134.961 1745.47 135.003 1750.91 135.009C1784.24 135.043 1836.97 135.124 1856.77 134.944C1861.03 134.945 1865.47 134.947 1870 134.948C1874.32 134.947 1878.74 135.508 1883 136.653C1887.25 137.788 1891.35 139.498 1895.11 141.681C1898.98 143.919 1902.48 146.651 1905.5 149.675C1908.73 152.906 1911.39 156.468 1913.47 160.077C1914.26 161.44 1914.96 162.806 1915.58 164.167C1919.1 172.917 1917.47 169.27 1918.43 172.196C1918.71 173.348 1919.36 175.506 1919.86 179.949C1920.15 183.551 1919.91 178.857 1920.17 184.275C1920.18 184.574 1920.18 184.874 1920.18 185.175C1920.18 185.175 1920.18 185.175 1920.18 185.175C1920.19 207.711 1920.18 232.243 1920.2 254.483C1920.2 259.067 1920.24 257.815 1920.25 259.114C1920.3 270.029 1920.21 288.2 1920.21 292.161C1920.19 302.793 1920.18 312.414 1920.18 321.646C1920.17 338.607 1920.18 354.257 1920.18 372.453C1920.18 378.974 1920.22 371.265 1920.23 377.54C1920.23 404.167 1920.23 431.577 1920.22 458.117C1920.21 464.013 1920.21 469.867 1920.21 475.66C1920.2 482.748 1920.16 476.229 1920.16 479.616C1920.14 494.551 1920.22 497.862 1920.2 512.185C1920.2 515.205 1920.16 513.504 1920.16 514.055C1920.1 522.675 1920.18 530.166 1920.18 532.383C1920.21 556.514 1920.14 573.155 1920.13 594.588C1920.13 598.067 1920.13 601.672 1920.13 605.456C1920.14 608.698 1920.18 601.388 1920.18 610.5C1920.19 649.906 1920.19 690.787 1920.17 731.058C1920.17 752.826 1920.16 774.416 1920.15 795.499C1920.14 804.842 1920.11 798.172 1920.1 798.76C1920.04 808.342 1920.13 814.542 1920.13 817.588C1920.15 835.803 1920.11 853.109 1920.13 867.529C1920.14 872.135 1920.16 876.447 1920.18 880.4C1920.17 921.674 1920.17 962.873 1920.17 1004C1920.17 1004.09 1920.15 1004.21 1920.13 1004.3C1920.1 1004.4 1920.06 1004.5 1920.01 1004.58C1919.96 1004.67 1919.9 1004.75 1919.83 1004.83C1919.75 1004.9 1919.67 1004.96 1919.58 1005.01C1919.5 1005.06 1919.4 1005.1 1919.3 1005.13C1919.21 1005.15 1919.09 1005.17 1919 1005.17C1919 1005.17 1919 1005.17 1919 1005.17C1859.24 1005.17 1799.62 1005.17 1740.14 1005.11C1738.85 1005.11 1741.15 1005.07 1738.59 1005.07C1707.76 1005.04 1713.68 1005.11 1693.28 1005.19C1688.15 1005.21 1672.51 1005.11 1671.13 1005.11C1666.09 1005.08 1671.32 1005.02 1669.63 1005.01C1655.67 1004.97 1657.94 1005.18 1639.11 1005.18C1638.52 1005.18 1640.99 1005.14 1639.41 1005.14C1634.5 1005.13 1629.63 1005.14 1624.82 1005.13C1615.24 1005.1 1611.03 1005.02 1599 1005.04C1597.22 1005.04 1595.27 1005.05 1593.1 1005.05C1590.97 1005.06 1594.22 1005.18 1577.4 1005.17C1570.7 1005.17 1541.02 1005.17 1532.7 1005.17C1524.39 1005.16 1530.1 1005.12 1529.51 1005.12C1507.12 1005.07 1515.61 1005.05 1504.39 1004.97C1493.18 1004.9 1496.29 1005.08 1491.72 1005.1C1487.14 1005.12 1470.73 1005.07 1466.69 1005.06C1462.66 1005.05 1467.69 1005.02 1464.11 1005.01C1440.34 1004.96 1453.68 1005.1 1445.84 1005.13C1427.38 1005.19 1413 1005.06 1396.1 1005.05C1391.53 1005.05 1395.26 1005.08 1391.19 1005.08C1375.06 1005.09 1365.36 1005.05 1347.01 1005.09C1344.01 1005.09 1329.17 1005.17 1319.57 1005.12C1318.21 1005.11 1322.07 1005.07 1315.2 1005.07C1305.98 1005.06 1290.13 1005.05 1279 1005.06C1277.73 1005.06 1276.52 1005.06 1275.39 1005.06C1267.24 1005.07 1276.58 1005.12 1266.33 1005.1C1261.77 1005.1 1270.22 1005.07 1261.65 1005.05C1253.13 1005.04 1231.35 1005.04 1223.06 1005.05C1214.79 1005.05 1219.31 1005.09 1218.65 1005.09C1214.6 1005.11 1198.72 1005.13 1197.32 1005.13C1126.54 1005.13 1061.27 1005.06 992.36 1005.08C986.952 1005.09 990.555 1005.13 989.73 1005.13C971.216 1005.15 985.813 1005.03 972.88 1005C974.499 1005.07 968.984 1005.07 959 1005.07C957.461 1005.07 955.815 1005.08 954.073 1005.08C947.789 1005.08 951.212 1005.11 950.638 1005.12C941.319 1005.17 934.83 1005.1 933.158 1005.09C926.986 1005.04 920.27 1005.1 916.069 1005.07C911.872 1005.03 921.532 1004.98 909.025 1004.98C905.518 1005.02 914.804 1005.1 905.307 1005.11C869.479 1005.16 802.6 1005.1 773.793 1005.09C745.043 1005.08 735.757 1005.09 719.004 1005.08C688.743 1005.06 699.833 1005.12 681.044 1005.14C662.199 1005.17 671.36 1005.02 668.651 1004.99C665.992 1004.96 663.088 1004.99 659.78 1004.98C656.484 1004.96 663.621 1004.94 655.867 1004.93C652.157 1004.93 645.372 1004.94 639 1004.95C632.045 1004.97 625.581 1005 624.146 1005.01C618.332 1005.08 627.891 1005.16 607.362 1005.13C606.181 1005.13 610.013 1005.09 605.492 1005.09C569.583 1005.06 532.279 1005.06 496.415 1005.03C491.484 1005.03 495.893 1004.98 493.023 1004.98C463.13 1004.95 473.816 1005.03 457.432 1005.11C461.111 1005 452.051 1004.93 429.364 1004.93C415.726 1004.93 418.074 1004.98 409.253 1005.01C406.607 1005.02 396.956 1004.99 395.208 1005.01C389.442 1005.08 398.531 1005.16 375.141 1005.13C374.115 1005.13 377.382 1005.09 373.836 1005.09C350.915 1005.07 348.172 1005.15 323.396 1005.16C322.004 1005.16 320.536 1005.16 319 1005.16C299.091 1005.16 267.851 1005.12 247.322 1005.11C247.787 1004.99 226.9 1005.02 218.428 1005.1C204.076 1005.1 188.576 1005.1 174.705 1005.09C169.932 1005.09 173.068 1005.05 172.466 1005.05C163.235 1004.99 156.996 1005.07 153.899 1005.07C120.326 1005.1 92.9726 1005.04 60.9321 1005.1C59.7954 1005.11 57.9524 1005.19 49.3874 1005.13C48.8337 1005.12 59.4152 1005.09 44.3434 1005.08C33.5308 1005.08 15.854 1005.06 -1.00001 1005.06C-1.08973 1005.06 -1.1858 1005.05 -1.27387 1005.02C-1.36315 1005 -1.44916 1004.96 -1.52909 1004.92C-1.60904 1004.87 -1.68285 1004.81 -1.74809 1004.75C-1.81338 1004.68 -1.87014 1004.61 -1.91636 1004.53C-1.96266 1004.45 -1.99836 1004.36 -2.0222 1004.27C-2.04601 1004.19 -2.05827 1004.09 -2.05805 1004C-2.05903 997.902 -2.06349 991.944 -2.07365 986.494C-2.08305 981.43 -2.15144 968.62 -2.098 958.339C-2.09075 956.969 -2.06659 958.468 -2.05314 956.491C-2.0103 950.099 -2.09545 946.61 -2.02311 939.098C-1.95078 931.585 -1.89661 915.959 -1.94652 894.854C-1.94797 894.181 -2.01545 889.185 -2.01439 882.548C-2.01361 877.855 -2.01041 872.29 -2.00714 866.585C-2.00302 859.409 -1.99876 852.011 -1.99901 845.848C-1.99924 840.551 -2.04115 843.942 -2.04191 843.022C-2.0654 807.406 -2.02804 782.057 -2.01182 743.902C-2.01051 740.894 -2.02033 735.462 -2.02836 729.171C-2.039 720.833 -2.04648 710.985 -2.02073 703.267C-1.97128 688.399 -1.76554 703.678 -1.81456 669.503C-1.83416 655.719 -2.09517 638.268 -1.95994 613.497C-1.96505 606.175 -1.96777 598.936 -1.96888 591.756C-1.97507 551.825 -1.93154 513.684 -1.97209 472.851C-1.97421 470.685 -2.04706 463.834 -2.04606 458.741C-2.04572 457.135 -2.04392 455.684 -2.04127 454.341C-2.03143 449.361 -2.00993 445.883 -2.00816 441.63C-1.99791 419.007 -2.02704 398.305 -2.0225 376.492C-2.02086 368.211 -1.98565 371.107 -1.98369 361.23C-1.98175 351.359 -2.02811 344.777 -2.00572 331.401C-1.99776 326.688 -1.97289 321.975 -1.9475 316.927C-1.91846 311.154 -1.88875 304.942 -1.88286 297.788C-1.97632 297.277 -1.97439 288.067 -1.99907 271.698C-2.00385 268.552 -2.03638 271.926 -2.04033 270.437C-2.05709 264.38 -2.03013 258.774 -2.04838 253.022C-2.05277 251.623 -2.08469 251.557 -2.09007 250.413C-2.13708 240.687 -2.06528 224.663 -2.05278 221.91C-2.0053 211.362 -2.04682 206.433 -2.02812 198.343C-2.00943 190.265 -1.98606 202.343 -1.97471 192.907C-1.96963 188.667 -1.96589 184.165 -1.96313 179.513C-1.96237 178.219 -1.91154 176.918 -1.80838 175.609C-1.7067 174.319 -1.55416 173.024 -1.34964 171.73C-1.14726 170.45 -0.893963 169.171 -0.589675 167.899C-0.287483 166.636 0.0650182 165.381 0.466914 164.139C0.867417 162.902 1.31698 161.678 1.81374 160.473C2.31056 159.269 2.85395 158.085 3.44272 156.923C7.18232 149.549 10.8838 142.247 14.3017 135.505C14.8648 134.395 15.4202 133.299 15.9668 132.221C19.5508 125.152 17.0678 129.956 17.5799 128.944C20.1278 123.91 22.6915 118.859 25.1227 114.068C29.4153 105.608 33.2949 97.9565 35.9451 92.6308C36.1538 92.2116 36.3548 91.8067 36.5478 91.417C40.8985 83.2308 41.1121 82.5283 46.8135 71.2173C48.1016 68.662 49.6697 65.5654 51.6288 61.7187C52.4663 60.0745 53.6203 58.0277 50.4306 64.3533C49.412 66.3734 48.2203 68.7242 46.9258 71.2742C44.1672 76.7088 40.9422 83.0486 37.9317 89.0228C37.6349 89.6117 36.9452 90.9918 36.0906 92.7046C33.9285 97.0372 30.7104 103.498 30.1246 104.663C27.9698 108.948 26.4211 111.987 25.3013 114.158C23.0941 118.439 22.5535 119.35 22.3222 119.794C20.1757 123.918 17.0457 130.11 14.3256 135.517C12.043 140.055 10.0491 144.041 9.16684 145.788C7.22626 149.632 5.34758 153.348 3.51884 156.962C2.92589 158.134 2.38626 159.315 1.89549 160.507C1.39656 161.719 0.949635 162.94 0.553379 164.167C0.15068 165.414 -0.199693 166.666 -0.499207 167.921C-0.803246 169.194 -1.05489 170.47 -1.25568 171.745C-1.45925 173.038 -1.61056 174.329 -1.7112 175.617C-1.81311 176.921 -1.86301 178.218 -1.86272 179.512C-1.86122 185.191 -1.8584 190.738 -1.85045 196.255C-1.83515 206.993 -1.73357 208.044 -1.73668 216.475C-1.74695 244.503 -1.88866 254.287 -1.76579 280.699C-1.73959 286.362 -1.62857 280.735 -1.71586 301.028C-1.71969 301.915 -1.75951 309.476 -1.76638 316.927C-1.76939 320.186 -1.76609 323.425 -1.75072 326.074C-1.74435 327.167 -1.71199 327.133 -1.70927 328.574C-1.69169 338.237 -1.71747 344.681 -1.70512 355.208C-1.69278 365.733 -1.67437 378.389 -1.68535 390.407C-1.69191 397.649 -1.75219 406.942 -1.76695 410.409C-1.80947 420.199 -1.73976 430.695 -1.79124 436.76C-1.84299 442.876 -1.92157 430.919 -1.955 446.957C-1.87094 447.551 -1.78466 448.915 -1.70012 449.87C-1.70024 451.361 -1.70041 452.852 -1.70062 454.341C-1.70533 487.952 -1.7301 521.093 -1.72655 554.86C-1.726 559.232 -1.68081 554.761 -1.67906 559.447C-1.67498 570.674 -1.68361 581.093 -1.68947 591.756C-1.69394 599.874 -1.69681 608.133 -1.69127 616.997C-1.68116 632.87 -1.63332 650.275 -1.62126 666.872C-1.71745 677.01 -1.6848 701.639 -1.69359 719.53C-1.69646 725.468 -1.71967 725.404 -1.72924 729.171C-1.72977 729.38 -1.73026 729.601 -1.7307 729.836C-1.76169 746.65 -1.67669 738.771 -1.66331 743.381C-1.60622 763.158 -1.79862 764.851 -1.79387 788.168C-1.79368 789.403 -1.69112 804.503 -1.68474 806.583C-1.64309 819.798 -1.72043 808.771 -1.72801 817.041C-1.74186 832.141 -1.76635 842.633 -1.73631 860.35C-1.73368 861.878 -1.72623 864.04 -1.71832 866.585C-1.69951 872.643 -1.67812 880.876 -1.71294 887.94C-1.71941 889.26 -1.75331 888.53 -1.75529 889.592C-1.78839 908.82 -1.68187 909.326 -1.6458 920.313C-1.60973 931.302 -1.68326 948.275 -1.70445 951.729C-1.75927 960.766 -1.72788 944.805 -1.73326 944.316C-1.79728 938.567 -1.78626 950.946 -1.79167 960.404C-1.89611 961.774 -1.88984 975.001 -1.79686 970.21C-1.7867 969.665 -1.79644 962.304 -1.79167 960.404C-1.6892 968.707 -1.67608 983.244 -1.77183 999.3C-1.789 1002.17 -1.80725 1002.91 -1.82218 1004C-1.82269 1004.08 -1.81606 1004.14 -1.79768 1004.21C-1.78078 1004.28 -1.75469 1004.35 -1.71788 1004.41C-1.68394 1004.47 -1.64085 1004.53 -1.58789 1004.59C-1.53922 1004.64 -1.48216 1004.68 -1.41685 1004.72C-1.35675 1004.76 -1.28971 1004.79 -1.21654 1004.81C-1.14525 1004.83 -1.08563 1004.84 -0.998059 1004.84C1.13154 1004.85 5.25509 1004.86 15.9707 1004.85C26.3323 1004.84 22.3286 1004.77 31.4724 1004.75C52.363 1004.71 79.5081 1004.77 101.045 1004.76C108.862 1004.76 101.247 1004.72 106.589 1004.71C120.766 1004.7 133.269 1004.73 147.507 1004.72C148.797 1004.72 145.645 1004.68 150.072 1004.67C183.638 1004.67 212.864 1004.7 247.909 1004.7C264.842 1004.7 295.114 1004.67 312.655 1004.68C314.74 1004.68 316.856 1004.68 319 1004.68C348.13 1004.69 382.236 1004.75 406.427 1004.73C423.365 1004.72 419.649 1004.68 426.907 1004.65C440.912 1004.6 465.704 1004.7 469.042 1004.71C469.144 1004.71 454.568 1004.72 462.346 1004.74C466.868 1004.79 468.878 1004.71 469.042 1004.71C471.234 1004.72 500.351 1004.73 506.133 1004.72C509.275 1004.72 507.517 1004.68 509.155 1004.68C548.09 1004.64 587.092 1004.63 626.581 1004.65C627.276 1004.65 626.229 1004.7 627.864 1004.7C631.798 1004.7 635.489 1004.7 639 1004.7C655.889 1004.7 668.608 1004.66 684.218 1004.63C703.069 1004.6 718.02 1004.61 729.179 1004.69C743.403 1004.68 763.811 1004.71 775.554 1004.73C787.297 1004.75 788.936 1004.66 789.969 1004.66C822.196 1004.61 840.826 1004.66 874.26 1004.67C890.156 1004.67 921.687 1004.66 938.898 1004.65C946.783 1004.64 952.851 1004.65 959 1004.65C963.459 1004.65 967.96 1004.65 973.228 1004.65C974.923 1004.65 973.21 1004.61 973.728 1004.61C987.716 1004.56 980.993 1004.65 983.881 1004.67C994.351 1004.73 1000.82 1004.76 1018.73 1004.73C1022.86 1004.73 1034.9 1004.59 1042.43 1004.59C1052.22 1004.58 1048.53 1004.62 1058.78 1004.61C1059.66 1004.61 1059.48 1004.58 1065.8 1004.58C1095.18 1004.59 1127.2 1004.61 1157.73 1004.6C1161.9 1004.6 1156.55 1004.56 1162.57 1004.56C1190.84 1004.55 1221.83 1004.55 1249.37 1004.57C1256.15 1004.58 1251.9 1004.61 1253.37 1004.62C1262.4 1004.68 1275.21 1004.59 1277.33 1004.59C1277.89 1004.59 1278.44 1004.59 1279 1004.59C1328.61 1004.55 1366.91 1004.63 1417.73 1004.59C1420.53 1004.59 1442.06 1004.5 1451.67 1004.58C1452.33 1004.58 1461.83 1004.66 1470.24 1004.61C1470.76 1004.6 1464.84 1004.56 1475.17 1004.57C1485.51 1004.57 1502.14 1004.54 1516.35 1004.59C1520.85 1004.6 1531.48 1004.68 1544.9 1004.62C1545.77 1004.62 1566.49 1004.47 1573.88 1004.57C1575.08 1004.59 1573.82 1004.69 1589.84 1004.64C1592.9 1004.63 1587.34 1004.6 1595.4 1004.59C1596.57 1004.59 1597.77 1004.59 1599 1004.58C1610.83 1004.57 1625.55 1004.59 1639.3 1004.55C1641.95 1004.54 1653.22 1004.47 1662.26 1004.52C1663.68 1004.53 1660.99 1004.57 1665.76 1004.57C1688.46 1004.59 1712.24 1004.57 1735.29 1004.59C1743.45 1004.6 1739.28 1004.66 1747.79 1004.67C1756.3 1004.69 1773.45 1004.7 1782.36 1004.67C1791.27 1004.65 1781.54 1004.56 1794.88 1004.55C1836.41 1004.53 1877.66 1004.55 1919 1004.57C1919 1004.57 1919 1004.57 1919 1004.57C1919.07 1004.56 1919.09 1004.56 1919.15 1004.55C1919.19 1004.53 1919.24 1004.51 1919.28 1004.49C1919.33 1004.47 1919.37 1004.44 1919.4 1004.4C1919.44 1004.37 1919.47 1004.33 1919.49 1004.28C1919.52 1004.24 1919.53 1004.19 1919.55 1004.15C1919.56 1004.09 1919.56 1004.07 1919.57 1004C1919.57 988.107 1919.58 972.198 1919.58 956.256C1919.58 947.663 1919.55 954.786 1919.55 942.124C1919.55 921.688 1919.54 894.754 1919.54 867.529C1919.54 832.556 1919.55 797.101 1919.58 774.323C1919.64 741.864 1919.68 782.711 1919.7 757.908C1919.71 746.965 1919.63 735.203 1919.61 731.058C1919.61 730.67 1919.61 730.348 1919.61 730.1C1919.57 701.875 1919.62 682.258 1919.6 656.853C1919.6 651.607 1919.56 656.753 1919.56 652.288C1919.55 637.037 1919.57 621.008 1919.57 606.435C1919.56 599.897 1919.53 601.101 1919.53 595.086C1919.53 594.919 1919.53 594.753 1919.53 594.588C1919.54 580.397 1919.55 567.8 1919.58 553.929C1919.59 552.65 1919.63 561.274 1919.63 550.624C1919.63 533.387 1919.66 511.992 1919.63 492.161C1919.62 486.277 1919.55 486.047 1919.6 473.398C1919.61 470.745 1919.7 474.13 1919.62 459.397C1919.62 459.161 1919.62 458.725 1919.61 458.117C1919.59 452.328 1919.51 431.015 1919.57 420.023C1919.59 416.819 1919.66 408.64 1919.65 401.564C1919.65 400.605 1919.61 404.449 1919.6 398.586C1919.59 377.922 1919.6 356.265 1919.58 335.035C1919.58 329.366 1919.54 337.81 1919.53 329.361C1919.53 326.851 1919.53 324.275 1919.53 321.646C1919.53 299.933 1919.54 274.663 1919.55 254.396C1919.55 246.02 1919.59 251.81 1919.59 251.2C1919.65 241.398 1919.57 235.603 1919.56 232.35C1919.54 214.743 1919.56 200.791 1919.57 185.175C1919.57 185.175 1919.57 185.175 1919.57 185.175C1919.56 182.85 1919.41 180.515 1919.07 178.143C1918.21 173.117 1918.79 176.687 1918.61 175.687C1918.32 174.246 1918.05 173.171 1917.83 172.356C1916.32 167.391 1917.95 172.115 1916.01 166.721C1915.15 164.568 1914.12 162.446 1912.94 160.387C1910.81 156.698 1908.15 153.215 1905.06 150.119C1902.01 147.072 1898.54 144.4 1894.79 142.231C1891.03 140.05 1886.98 138.38 1882.84 137.274C1878.77 136.189 1874.65 135.647 1870.57 135.603C1870.37 135.6 1870.18 135.599 1870 135.6C1864.02 135.604 1871.26 135.647 1865.16 135.648C1827.99 135.656 1789.34 135.651 1753.06 135.626C1746.23 135.621 1750.53 135.586 1749.1 135.579C1739.29 135.523 1724.91 135.599 1721.6 135.606C1706.56 135.639 1700.71 135.608 1687.42 135.614C1676.7 135.619 1665.57 135.622 1654.17 135.625C1596.55 135.636 1532.25 135.62 1481.1 135.61C1466.3 135.607 1452.11 135.603 1438.34 135.599C1377.8 135.583 1325.18 135.562 1263.16 135.569C1258.32 135.569 1263.2 135.616 1259.03 135.617C1246.82 135.619 1234.65 135.62 1222.5 135.621C1181.08 135.621 1139.91 135.613 1098.19 135.623C1093.76 135.624 1100.14 135.668 1093.03 135.672C1078.45 135.678 1059.99 135.676 1045.24 135.662C1038.05 135.655 1047.7 135.617 1040.46 135.611C1029.53 135.602 1018.09 135.597 1006.67 135.597C1000.49 135.597 994.318 135.598 988.238 135.601C980.872 135.604 991.986 135.649 982.411 135.65C918.382 135.654 855.477 135.662 790.838 135.607C789.639 135.606 788.439 135.604 787.238 135.603C782.72 135.599 778.755 135.508 769.149 135.525C768.425 135.551 768.465 135.581 768.149 135.608C703.551 135.618 639.401 135.606 575.006 135.596C575.006 135.596 575.006 135.596 575.006 135.596C571.659 135.597 568.281 135.26 564.993 134.593C561.701 133.927 558.477 132.929 555.382 131.619C552.289 130.311 549.326 128.693 546.553 126.796C543.781 124.9 541.197 122.727 538.855 120.318C536.513 117.91 534.414 115.268 532.598 112.44C530.785 109.621 529.245 106.596 528.031 103.475C526.507 99.5618 524.982 95.6463 523.456 91.729C521.932 87.8156 520.407 83.9002 518.881 79.9827C518.18 78.1817 517.478 76.3803 516.776 74.5784C515.319 70.838 517.792 77.3198 514.971 70.0783C514.734 69.47 514.497 68.8619 514.261 68.2541C512.732 64.3295 511.207 60.4152 509.685 56.5083C508.157 52.5864 506.631 48.6721 505.108 44.7625C503.581 40.8435 502.056 36.9293 500.532 33.0167C499.326 29.9232 497.831 26.9901 496.044 24.2074C494.26 21.4312 492.197 18.8351 489.894 16.4673C487.595 14.1026 485.057 11.9667 482.33 10.102C479.609 8.24075 476.698 6.6493 473.654 5.36168C470.618 4.07693 467.451 3.09506 464.21 2.43798C460.974 1.7825 457.698 1.45194 454.371 1.44961C454.37 1.44961 454.371 1.44961 454.371 1.44961C442.841 1.44407 431.218 1.43577 419.443 1.42342C414.878 1.4187 417.22 1.33329 403.767 1.34621C403.041 1.34693 400.637 1.3485 397.501 1.35086C390.395 1.35621 379.529 1.36563 375.894 1.3785C375.183 1.38129 378.879 1.42116 372.35 1.42232C361.89 1.42399 351.29 1.4245 340.631 1.42387C321.72 1.42274 302.619 1.41797 283.76 1.40957C274.692 1.40553 265.68 1.40064 256.773 1.39491C250.66 1.39091 257.17 1.34845 252.816 1.34523C244.331 1.33904 235.643 1.33699 226.89 1.33646C207.747 1.33532 188.299 1.3415 170.02 1.32776C166.234 1.32492 162.499 1.32122 158.827 1.31642C139.073 1.29047 146.387 1.21709 135.89 1.14485C134.405 1.13466 122.173 1.13305 121.54 1.09102C119.916 0.98534 125.841 0.869621 123.41 0.756976C122.897 0.732713 106.515 0.758846 116.214 0.700214C116.891 0.69629 128.768 0.67683 131.694 0.65694C133.73 0.643188 130.06 0.600447 134.216 0.582843C138.371 0.565256 142.937 0.601084 149.826 0.580402C156.712 0.559464 153.684 0.510841 167.437 0.505085ZM828.429 1004.82C839.303 1004.86 840.908 1004.71 829.147 1004.75C828.578 1004.75 827.868 1004.82 828.429 1004.82ZM-1.84306 519.399C-1.90902 533.615 -1.81203 543.342 -1.76109 533.314C-1.7102 523.287 -1.82307 515.069 -1.84306 519.399ZM-1.89122 371.992C-1.94323 388.606 -1.73116 391.221 -1.77403 373.427C-1.77645 372.392 -1.8882 371.021 -1.89122 371.992ZM184.569 1.12428C184.419 1.1223 175.626 1.12036 175.416 1.12233C170.734 1.16983 188.316 1.17366 184.569 1.12428ZM-1.94365 225.715C-1.97233 230.902 -1.93922 245.835 -1.90355 239.391C-1.87485 234.203 -1.90796 219.256 -1.94365 225.715ZM1395.64 1004.98C1395.82 1004.98 1402.12 1004.98 1401.99 1004.97C1401.56 1004.93 1392.79 1004.94 1395.64 1004.98ZM93.5063 5.07813C91.1954 6.06629 89.0215 7.20241 87.0074 8.43734C84.2574 10.1227 81.8056 11.9924 79.6678 13.916C77.1836 16.15 75.1232 18.4541 73.4436 20.6391C71.1974 23.5611 69.6291 26.2609 68.5382 28.3841C68.5382 28.3841 68.5382 28.3841 68.5382 28.3841C65.5033 34.2953 64.9962 35.2142 68.4609 28.345C68.461 28.3449 68.4609 28.3452 68.461 28.3448C69.4878 26.3193 70.9857 23.651 73.3412 20.5608C74.5592 18.9679 76.0092 17.2676 77.7566 15.5257C81.0999 12.3463 75.5228 17.468 73.3773 20.5884C72.1333 22.2775 71.6063 23.0328 73.3989 20.6049C73.4565 20.5298 73.5167 20.4519 73.5795 20.371C75.5025 17.8965 77.5297 15.7523 79.6192 13.8621C81.979 11.7305 84.4197 9.91918 86.9552 8.35233C89.5704 6.73929 92.2891 5.38428 95.1737 4.26674C97.9408 3.19738 100.863 2.34608 104.006 1.76295C106.766 1.25293 109.698 0.950785 112.833 0.940896C114.49 0.985027 109.389 0.775502 104.021 1.84476C100.658 2.46748 97.2429 3.57228 95.2165 4.37782C94.3495 4.71544 93.7262 4.9844 93.4465 5.10403C93.4665 5.09538 93.4864 5.08675 93.5063 5.07813ZM834.691 1005C834.909 1005 843.635 1005 843.844 1005C848.57 1004.95 830.99 1004.95 834.691 1005ZM1763.49 1005.07C1763.97 1005.08 1784.22 1005.08 1784.88 1005.08C1795.45 1005 1754.5 1004.99 1763.49 1005.07ZM246.974 1005.11C237.452 1005.16 226.062 1005.16 218.471 1005.1C227.934 1005.11 237.46 1005.11 246.974 1005.11Z" fill="#F6BFCF"/>
</g>
<defs>
<filter id="filter0_d_71_277" x="-6.11914" y="0.5" width="1930.38" height="1012.69" filterUnits="userSpaceOnUse" color-interpolation-filters="sRGB">
<feFlood flood-opacity="0" result="BackgroundImageFix"/>
<feColorMatrix in="SourceAlpha" type="matrix" values="0 0 0 0 0 0 0 0 0 0 0 0 0 0 0 0 0 0 127 0" result="hardAlpha"/>
<feOffset dy="4"/>
<feGaussianBlur stdDeviation="2"/>
<feComposite in2="hardAlpha" operator="out"/>
<feColorMatrix type="matrix" values="0 0 0 0 0 0 0 0 0 0 0 0 0 0 0 0 0 0 0.25 0"/>
<feBlend mode="normal" in2="BackgroundImageFix" result="effect1_dropShadow_71_277"/>
<feBlend mode="normal" in="SourceGraphic" in2="effect1_dropShadow_71_277" result="shape"/>
</filter>
</defs>
</svg>
