<svg width="40" height="40" viewBox="0 0 40 40" fill="none" xmlns="http://www.w3.org/2000/svg">
<path d="M32.5 5H7.5C6.83696 5 6.20107 5.26339 5.73223 5.73223C5.26339 6.20107 5 6.83696 5 7.5V32.5C5 33.163 5.26339 33.7989 5.73223 34.2678C6.20107 34.7366 6.83696 35 7.5 35H32.5C33.163 35 33.7989 34.7366 34.2678 34.2678C34.7366 33.7989 35 33.163 35 32.5V7.5C35 6.83696 34.7366 6.20107 34.2678 5.73223C33.7989 5.26339 33.163 5 32.5 5ZM16.25 28.75H10C9.66848 28.75 9.35054 28.6183 9.11612 28.3839C8.8817 28.1495 8.75 27.8315 8.75 27.5C8.75 27.1685 8.8817 26.8505 9.11612 26.6161C9.35054 26.3817 9.66848 26.25 10 26.25H16.25C16.5815 26.25 16.8995 26.3817 17.1339 26.6161C17.3683 26.8505 17.5 27.1685 17.5 27.5C17.5 27.8315 17.3683 28.1495 17.1339 28.3839C16.8995 28.6183 16.5815 28.75 16.25 28.75ZM8.75 20C8.75 19.6685 8.8817 19.3505 9.11612 19.1161C9.35054 18.8817 9.66848 18.75 10 18.75H15C15.3315 18.75 15.6495 18.8817 15.8839 19.1161C16.1183 19.3505 16.25 19.6685 16.25 20C16.25 20.3315 16.1183 20.6495 15.8839 20.8839C15.6495 21.1183 15.3315 21.25 15 21.25H10C9.66848 21.25 9.35054 21.1183 9.11612 20.8839C8.8817 20.6495 8.75 20.3315 8.75 20ZM25.2797 28.9969C25.1929 29.0403 25.0971 29.0629 25 29.0629C24.9029 29.0629 24.8071 29.0403 24.7203 28.9969C24.4766 28.875 18.75 25.9641 18.75 21.875C18.7503 21.1446 18.9833 20.4332 19.4151 19.8441C19.847 19.255 20.4552 18.8188 21.1517 18.5987C21.8482 18.3786 22.5967 18.3861 23.2887 18.6201C23.9806 18.8541 24.58 19.3024 25 19.9C25.42 19.3024 26.0194 18.8541 26.7113 18.6201C27.4033 18.3861 28.1518 18.3786 28.8483 18.5987C29.5448 18.8188 30.153 19.255 30.5849 19.8441C31.0167 20.4332 31.2497 21.1446 31.25 21.875C31.25 25.9641 25.5234 28.875 25.2797 28.9969ZM30 13.75H10C9.66848 13.75 9.35054 13.6183 9.11612 13.3839C8.8817 13.1495 8.75 12.8315 8.75 12.5C8.75 12.1685 8.8817 11.8505 9.11612 11.6161C9.35054 11.3817 9.66848 11.25 10 11.25H30C30.3315 11.25 30.6495 11.3817 30.8839 11.6161C31.1183 11.8505 31.25 12.1685 31.25 12.5C31.25 12.8315 31.1183 13.1495 30.8839 13.3839C30.6495 13.6183 30.3315 13.75 30 13.75Z" fill="#D7749B"/>
</svg>
