<svg width="60" height="60" viewBox="0 0 60 60" fill="none" xmlns="http://www.w3.org/2000/svg">
<path d="M46.555 8.0424C46.8497 8.2765 47.0877 8.57413 47.2514 8.91307C47.415 9.25201 47.5 9.62353 47.5 9.9999V39.1674C47.5 39.2674 47.4942 39.3682 47.4825 39.4699C47.4942 39.6449 47.5 39.8216 47.5 39.9999C47.4992 41.5918 46.9918 43.1421 46.0514 44.4266C45.111 45.711 43.7863 46.6629 42.269 47.1445C40.7517 47.6261 39.1205 47.6124 37.6115 47.1055C36.1024 46.5985 34.7939 45.6245 33.8751 44.3245C32.9564 43.0245 32.4751 41.4658 32.501 39.8741C32.5268 38.2824 33.0585 36.7403 34.019 35.4708C34.9795 34.2013 36.319 33.2703 37.8437 32.8126C39.3684 32.3549 40.9991 32.3943 42.5 32.9249V23.1499L22.5 27.8174V45.0074C22.4981 46.5991 21.9899 48.1489 21.0488 49.4326C20.1078 50.7163 18.7828 51.6674 17.2654 52.1482C15.7481 52.6289 14.1171 52.6145 12.6085 52.107C11.0999 51.5994 9.79189 50.6251 8.8737 49.325C7.95551 48.0248 7.47477 46.4662 7.50102 44.8748C7.52727 43.2833 8.05916 41.7414 9.01974 40.4723C9.98031 39.2031 11.3197 38.2725 12.8443 37.815C14.3688 37.3575 15.9993 37.3968 17.5 37.9274V15.8324C17.4999 15.268 17.6909 14.7201 18.0418 14.278C18.3926 13.8359 18.8828 13.5255 19.4325 13.3974L44.4325 7.5649C44.7958 7.48046 45.1735 7.47839 45.5377 7.55885C45.9019 7.63931 46.2435 7.80026 46.5375 8.0299L46.555 8.0424Z" fill="#FFFAF8"/>
</svg>
