<svg width="271" height="45" viewBox="0 0 271 45" fill="none" xmlns="http://www.w3.org/2000/svg">
<path d="M33.75 11.25V16.875H31.875V18.75H30V20.625H28.125V22.5H26.25V24.375H24.375V26.25H22.5V24.375H20.625V22.5H18.75V20.625H16.875V18.75H15V16.875H13.125V11.25H15V9.375H20.625V11.25H22.5V13.125H24.375V11.25H26.25V9.375H31.875V11.25H33.75Z" fill="#FFFAF8"/>
<path d="M37.5 31.875H39.375V30H41.25V3.75H39.375V1.875H7.5V3.75H5.625V5.625H3.75V39.375H5.625V41.25H7.5V43.125H39.375V41.25H41.25V39.375H39.375V37.5H37.5V31.875ZM33.75 39.375H9.375V37.5H7.5V33.75H9.375V31.875H33.75V39.375ZM7.5 5.625H37.5V28.125H7.5V5.625Z" fill="#FFFAF8"/>
<path d="M65 33.75V7.5H87.5V11.25H91.25V22.5H83.75V26.25H87.5V30H91.25V33.75H80V30H76.25V26.25H72.5V33.75H65ZM72.5 22.5H80V18.75H83.75V11.25H72.5V22.5ZM94.25 33.75V7.5H120.5V11.25H101.75V18.75H116.75V22.5H101.75V30H120.5V33.75H94.25ZM131 18.75V11.25H138.5V18.75H131ZM131 30V22.5H138.5V30H131ZM152.75 33.75V7.5H160.25V11.25H164V15H167.75V11.25H171.5V7.5H179V33.75H171.5V18.75H167.75V26.25H164V18.75H160.25V33.75H152.75ZM185.75 33.75V30H193.25V11.25H185.75V7.5H208.25V11.25H200.75V30H208.25V33.75H185.75ZM211.25 33.75V7.5H218.75V11.25H222.5V15H226.25V18.75H230V7.5H237.5V33.75H230V26.25H226.25V22.5H222.5V18.75H218.75V33.75H211.25ZM240.5 33.75V7.5H259.25V11.25H263V15H266.75V26.25H263V30H259.25V33.75H240.5ZM248 30H255.5V26.25H259.25V15H255.5V11.25H248V30Z" fill="#FFFAF8"/>
</svg>
