<svg width="40" height="42" viewBox="0 0 40 42" fill="none" xmlns="http://www.w3.org/2000/svg">
<path d="M9.98323 8.74667C12.5868 6.1824 16.0955 4.74659 19.7499 4.75001C23.4099 4.75001 26.9232 6.18501 29.5166 8.74667C31.8649 11.0633 33.0882 13.6567 33.4116 16.35C33.7332 19.02 33.1582 21.7 32.0616 24.2133C29.8849 29.2133 25.5582 33.76 21.4082 36.7183C20.9245 37.0644 20.3447 37.2505 19.7499 37.2505C19.1551 37.2505 18.5753 37.0644 18.0916 36.7183C13.9416 33.76 9.6149 29.2117 7.43657 24.2133C6.34157 21.7 5.76823 19.02 6.08823 16.3483C6.41157 13.6567 7.6349 11.065 9.98323 8.74667ZM15.1666 17.6667C15.1666 16.4511 15.6495 15.2853 16.509 14.4258C17.3685 13.5662 18.5343 13.0833 19.7499 13.0833C20.9655 13.0833 22.1313 13.5662 22.9908 14.4258C23.8503 15.2853 24.3332 16.4511 24.3332 17.6667C24.3332 18.8822 23.8503 20.048 22.9908 20.9076C22.1313 21.7671 20.9655 22.25 19.7499 22.25C18.5343 22.25 17.3685 21.7671 16.509 20.9076C15.6495 20.048 15.1666 18.8822 15.1666 17.6667Z" fill="#D7749B"/>
<path d="M19.2579 21.9271L18.3629 21.1124C15.1844 18.2301 13.0859 16.323 13.0859 13.9961C13.0859 12.089 14.5795 10.6016 16.4805 10.6016C17.5544 10.6016 18.5851 11.1015 19.2579 11.8853C19.9306 11.1015 20.9613 10.6016 22.0352 10.6016C23.9362 10.6016 25.4298 12.089 25.4298 13.9961C25.4298 16.323 23.3314 18.2301 20.1528 21.1124L19.2579 21.9271Z" fill="#FFFAF8"/>
</svg>
