<svg width="61" height="60" viewBox="0 0 61 60" fill="none" xmlns="http://www.w3.org/2000/svg">
<path d="M30.5 50C35.8043 50 40.8914 47.8929 44.6421 44.1421C48.3929 40.3914 50.5 35.3043 50.5 30C50.5 24.6957 48.3929 19.6086 44.6421 15.8579C40.8914 12.1071 35.8043 10 30.5 10C25.1957 10 20.1086 12.1071 16.3579 15.8579C12.6071 19.6086 10.5 24.6957 10.5 30C10.5 35.3043 12.6071 40.3914 16.3579 44.1421C20.1086 47.8929 25.1957 50 30.5 50ZM30.5 5C33.783 5 37.0339 5.64664 40.0671 6.90301C43.1002 8.15938 45.8562 10.0009 48.1777 12.3223C50.4991 14.6438 52.3406 17.3998 53.597 20.4329C54.8534 23.4661 55.5 26.717 55.5 30C55.5 36.6304 52.8661 42.9893 48.1777 47.6777C43.4893 52.3661 37.1304 55 30.5 55C16.675 55 5.5 43.75 5.5 30C5.5 23.3696 8.13392 17.0107 12.8223 12.3223C17.5107 7.63392 23.8696 5 30.5 5ZM31.75 17.5V30.625L43 37.3L41.125 40.375L28 32.5V17.5H31.75Z" fill="#FFFAF8"/>
</svg>
