<svg width="70" height="70" viewBox="0 0 70 70" fill="none" xmlns="http://www.w3.org/2000/svg">
<path d="M18.1581 14.0316C17.608 13.5003 16.8713 13.2064 16.1065 13.213C15.3418 13.2196 14.6103 13.5264 14.0695 14.0672C13.5287 14.6079 13.222 15.3395 13.2153 16.1042C13.2087 16.869 13.5027 17.6057 14.034 18.1558L30.8777 34.9995L14.031 51.8433C13.7525 52.1124 13.5303 52.4342 13.3774 52.79C13.2246 53.1459 13.1441 53.5286 13.1407 53.9159C13.1374 54.3032 13.2112 54.6872 13.3578 55.0457C13.5045 55.4041 13.721 55.7298 13.9949 56.0036C14.2688 56.2775 14.5944 56.494 14.9528 56.6407C15.3113 56.7873 15.6954 56.8611 16.0826 56.8578C16.4699 56.8544 16.8526 56.774 17.2085 56.6211C17.5643 56.4682 17.8862 56.246 18.1552 55.9675L35.0019 39.1237L51.8456 55.9675C52.3957 56.4988 53.1325 56.7927 53.8972 56.7861C54.662 56.7794 55.3935 56.4727 55.9343 55.9319C56.475 55.3912 56.7818 54.6596 56.7884 53.8949C56.7951 53.1301 56.5011 52.3934 55.9698 51.8433L39.126 34.9995L55.9698 18.1558C56.5011 17.6057 56.7951 16.869 56.7884 16.1042C56.7818 15.3395 56.475 14.6079 55.9343 14.0672C55.3935 13.5264 54.662 13.2196 53.8972 13.213C53.1325 13.2064 52.3957 13.5003 51.8456 14.0316L35.0019 30.8754L18.1581 14.0316Z" fill="#FFFAF8"/>
</svg>
