<svg width="50" height="51" viewBox="0 0 50 51" fill="none" xmlns="http://www.w3.org/2000/svg">
<path fill-rule="evenodd" clip-rule="evenodd" d="M25 0.5C31.6304 0.5 37.9893 2.85091 42.6777 7.03554C47.3661 11.2202 50 16.8958 50 22.8137C50 30.4351 45.3444 36.6731 40.4389 41.1482C37.988 43.3599 35.3137 45.3651 32.45 47.1382L31.2667 47.8572L30.7111 48.187L29.6639 48.782L28.7306 49.2902L27.575 49.8902C26.7907 50.2898 25.9031 50.5 25 50.5C24.0969 50.5 23.2094 50.2898 22.425 49.8902L21.2694 49.2902L19.825 48.4969L19.2917 48.187L18.1528 47.5101C15.0634 45.6445 12.1858 43.5137 9.56111 41.1482C4.65556 36.6706 0 30.4351 0 22.8137C0 16.8958 2.63392 11.2202 7.32233 7.03554C12.0107 2.85091 18.3696 0.5 25 0.5ZM25 5.45861C19.843 5.45861 14.8972 7.28709 11.2507 10.5418C7.60416 13.7965 5.55556 18.2109 5.55556 22.8137C5.55556 28.5707 9.08889 33.6235 13.5306 37.6797C15.4404 39.4052 17.5046 40.989 19.7028 42.4151L20.975 43.2234C21.3861 43.4796 21.7815 43.7176 22.1611 43.9374L23.2444 44.5573L24.1972 45.0754L25 45.4944L26.2639 44.8275L27.2833 44.2573C27.8259 43.9498 28.4065 43.6052 29.025 43.2234L30.2972 42.4151C32.4954 40.989 34.5596 39.4052 36.4694 37.6797C40.9111 33.626 44.4444 28.5707 44.4444 22.8137C44.4444 18.2109 42.3958 13.7965 38.7493 10.5418C35.1028 7.28709 30.157 5.45861 25 5.45861Z" fill="#D7749B"/>
<path d="M25.0365 25.771L23.7307 24.7116C19.093 20.9639 16.0312 18.4842 16.0312 15.4587C16.0312 12.979 18.2105 11.0449 20.9841 11.0449C22.551 11.0449 24.0549 11.695 25.0365 12.7141C26.0181 11.695 27.5219 11.0449 29.0889 11.0449C31.8625 11.0449 34.0417 12.979 34.0417 15.4587C34.0417 18.4842 30.98 20.9639 26.3423 24.7116L25.0365 25.771Z" fill="#D7749B"/>
</svg>
