<svg width="60" height="61" viewBox="0 0 60 61" fill="none" xmlns="http://www.w3.org/2000/svg">
<path fill-rule="evenodd" clip-rule="evenodd" d="M49.4819 2.80913C55.7668 6.32888 60.1888 13.4751 59.9938 21.8118C59.7508 32.2183 51.3239 41.3967 36.957 49.5951C34.827 50.8116 32.583 52.3884 30 52.3884C27.465 52.3884 25.125 50.7828 23.04 49.5922C8.67914 41.3967 0.249201 32.2154 0.00620304 21.8118C-0.188796 13.4751 4.23317 6.33177 10.5181 2.80913C16.3981 -0.480015 23.784 -0.500194 30 4.35713C36.216 -0.500194 43.6019 -0.482897 49.4819 2.80913ZM46.4609 7.79329C42.2789 5.45255 37.053 5.53615 32.529 9.93512C32.1973 10.255 31.8032 10.5088 31.3692 10.682C30.9352 10.8552 30.4699 10.9443 30 10.9443C29.5301 10.9443 29.0648 10.8552 28.6308 10.682C28.1968 10.5088 27.8027 10.255 27.471 9.93512C22.947 5.53615 17.7211 5.45255 13.5391 7.79329C9.20714 10.2205 5.85916 15.369 6.00616 21.6878C6.17416 28.9262 12.1261 36.6605 26.106 44.6398C27.33 45.3402 28.608 46.2368 30 46.6086C31.392 46.2368 32.67 45.3402 33.894 44.6398C47.8739 36.6605 53.8258 28.9291 53.9938 21.6849C54.1438 15.3719 50.7929 10.2205 46.4609 7.79329Z" fill="#D7749B"/>
<path d="M29.5646 15.0215C29.056 15.0215 28.5652 15.2039 28.1851 15.5338C27.8051 15.8638 27.5623 16.3184 27.5028 16.8116L27.4883 17.0488V27.1852L27.507 27.4507C27.5543 27.8025 27.6953 28.1359 27.916 28.4178L28.0966 28.6205L34.3255 34.7023L34.5207 34.8686C34.8848 35.1444 35.3326 35.2941 35.7935 35.2941C36.2543 35.2941 36.7021 35.1444 37.0662 34.8686L37.2614 34.7003L37.4338 34.5097C37.7163 34.1542 37.8696 33.717 37.8696 33.267C37.8696 32.817 37.7163 32.3798 37.4338 32.0243L37.2614 31.8337L31.6409 26.3438V17.0488L31.6263 16.8116C31.5668 16.3184 31.3241 15.8638 30.944 15.5338C30.564 15.2039 30.0731 15.0215 29.5646 15.0215Z" fill="#D7749B"/>
</svg>
