<svg width="60" height="50" viewBox="0 0 60 50" fill="none" xmlns="http://www.w3.org/2000/svg">
<path d="M13.2421 6.14863C17.9759 2.20366 24.3553 -0.00524664 30.9994 9.35834e-06C37.6539 9.35834e-06 44.0417 2.20767 48.7568 6.14863C53.0264 9.71268 55.2506 13.7024 55.8385 17.8459C56.4233 21.9535 55.3779 26.0765 53.384 29.9432C49.4264 37.6353 41.5599 44.6301 34.0146 49.1813C33.1351 49.7137 32.0808 50 30.9994 50C29.9181 50 28.8638 49.7137 27.9843 49.1813C20.439 44.6301 12.5725 37.6328 8.6119 29.9432C6.62102 26.0765 5.57861 21.9535 6.16042 17.8433C6.74829 13.7024 8.9725 9.71525 13.2421 6.14863ZM22.6662 19.8715C22.6662 18.0014 23.5442 16.2079 25.107 14.8856C26.6698 13.5632 28.7893 12.8203 30.9994 12.8203C33.2096 12.8203 35.3291 13.5632 36.8919 14.8856C38.4547 16.2079 39.3327 18.0014 39.3327 19.8715C39.3327 21.7416 38.4547 23.5351 36.8919 24.8574C35.3291 26.1798 33.2096 26.9227 30.9994 26.9227C28.7893 26.9227 26.6698 26.1798 25.107 24.8574C23.5442 23.5351 22.6662 21.7416 22.6662 19.8715Z" fill="#FFFAF8"/>
<path d="M31.25 30.0156L29.8906 28.7781C25.0625 24.4 21.875 21.5031 21.875 17.9688C21.875 15.0719 24.1438 12.8125 27.0312 12.8125C28.6625 12.8125 30.2281 13.5719 31.25 14.7625C32.2719 13.5719 33.8375 12.8125 35.4688 12.8125C38.3563 12.8125 40.625 15.0719 40.625 17.9688C40.625 21.5031 37.4375 24.4 32.6094 28.7781L31.25 30.0156Z" fill="#D7749B"/>
</svg>
