<svg width="70" height="70" viewBox="0 0 70 70" fill="none" xmlns="http://www.w3.org/2000/svg">
<path d="M46.6667 35.5827C46.6667 39.9868 42.7 43.5743 36.6917 49.0285L35 50.5743L33.3083 49.0285C27.3 43.5743 23.3333 39.9868 23.3333 35.5827C23.3333 31.9952 26.1625 29.166 29.75 29.166C31.7917 29.166 33.7167 30.0993 35 31.5868C36.2833 30.0993 38.2083 29.166 40.25 29.166C43.8375 29.166 46.6667 31.9952 46.6667 35.5827ZM61.25 14.5827V55.416C61.25 58.6535 58.6542 61.2493 55.4167 61.2493H14.5833C13.0362 61.2493 11.5525 60.6348 10.4585 59.5408C9.36458 58.4468 8.75 56.9631 8.75 55.416V14.5827C8.75 11.3743 11.375 8.74935 14.5833 8.74935H17.5V2.91602H23.3333V8.74935H46.6667V2.91602H52.5V8.74935H55.4167C56.9638 8.74935 58.4475 9.36393 59.5415 10.4579C60.6354 11.5519 61.25 13.0356 61.25 14.5827ZM14.5833 14.5827V20.416H55.4167V14.5827H14.5833ZM55.4167 55.416V26.2493H14.5833V55.416H55.4167Z" fill="#D7749B"/>
</svg>
